<svg width="347" height="216" viewBox="0 0 347 216" fill="none" xmlns="http://www.w3.org/2000/svg">
<path fill-rule="evenodd" clip-rule="evenodd" d="M125.096 201.368C113.118 192.743 114.656 195.242 99.7519 195.432C84.8474 195.618 87.7222 180.046 91.0768 175.972C94.4307 171.9 92.7534 163.995 83.1701 166.15C73.5874 168.307 63.2854 168.067 67.1188 156.568C70.9516 145.067 63.629 143.744 56.8167 132.85C50.0045 121.955 52.9506 115.785 58.9395 114.587C64.9292 113.389 70.9516 119.912 75.9834 119.673C81.0138 119.433 83.4098 110.596 89.3989 111.66C95.3885 112.724 95.4375 116.319 99.726 125.902C104.013 135.485 108.805 134.766 114.795 132.61C120.784 130.454 126.534 133.328 129.649 141.714C132.763 150.1 151.861 184.086 145.187 198.118C145.187 198.118 137.075 209.994 125.096 201.368Z" fill="#141414"/>
<path d="M72.8058 128.915C72.6729 129.127 72.7295 129.404 72.9303 129.548L72.966 129.571L73.1684 129.7C73.307 129.788 73.465 129.89 73.6421 130.005L73.7987 130.106C74.49 130.556 75.2923 131.089 76.1964 131.7L76.5863 131.965C79.0039 133.61 81.6717 135.5 84.5309 137.619L84.7632 137.792C93.627 144.375 102.491 151.776 110.762 159.823C125.84 174.494 137.22 189.632 143.401 204.801C143.499 205.042 143.774 205.157 144.014 205.06C144.255 204.961 144.371 204.686 144.272 204.447C138.034 189.138 126.581 173.903 111.418 159.149C103.114 151.07 94.2192 143.644 85.3239 137.037L84.8587 136.692C81.9993 134.577 79.3332 132.693 76.9189 131.054L76.3215 130.65C75.7069 130.236 75.1427 129.862 74.6323 129.528L74.1536 129.215C74.0258 129.133 73.9078 129.056 73.7996 128.987L73.4541 128.767C73.2342 128.629 72.9439 128.695 72.8058 128.915Z" fill="white"/>
<path fill-rule="evenodd" clip-rule="evenodd" d="M136.376 188.594C136.376 188.594 120.325 152.925 104.752 128.833C89.1791 104.742 91.0962 79.8261 110.502 77.4301C129.908 75.0349 146.678 117.918 136.376 188.594Z" fill="#FEBE2A"/>
<path d="M114.879 93.5484C114.66 93.6678 114.573 93.9371 114.678 94.1606L114.702 94.2063L114.845 94.4749L115.007 94.7844C115.142 95.0447 115.29 95.336 115.452 95.6575L115.601 95.955C116.304 97.3639 117.085 99.007 117.926 100.872L118.013 101.065C120.51 106.625 123.007 112.963 125.338 119.967C128.58 129.71 131.233 139.954 133.091 150.561C135.304 163.194 136.311 175.913 135.906 188.58C135.898 188.84 136.102 189.057 136.361 189.064C136.621 189.074 136.838 188.87 136.846 188.61C137.253 175.875 136.241 163.092 134.018 150.398C132.151 139.744 129.487 129.456 126.23 119.67C123.928 112.752 121.464 106.48 118.996 100.96L118.871 100.68C118.08 98.9191 117.339 97.3501 116.665 95.9832L116.443 95.5351C116.237 95.1233 116.05 94.7551 115.883 94.4312L115.761 94.1965C115.712 94.102 115.667 94.0167 115.626 93.9409L115.517 93.7365C115.393 93.5084 115.107 93.4241 114.879 93.5484Z" fill="#141414"/>
<path fill-rule="evenodd" clip-rule="evenodd" d="M257.159 158.507C257.159 158.507 258.876 149.602 252.603 146.87C246.33 144.139 245.348 140.049 241.464 139.019C237.684 138.016 232.026 144.772 239.677 152.05C247.328 159.329 250.365 162.261 257.159 158.507Z" fill="#FEBE2A"/>
<path fill-rule="evenodd" clip-rule="evenodd" d="M264.655 176.384C264.674 176.384 264.693 176.382 264.712 176.379C264.882 176.348 264.995 176.184 264.964 176.014C261.728 158.272 248.467 149.316 244.109 146.372C243.45 145.928 242.93 145.577 242.757 145.403C242.634 145.28 242.436 145.28 242.313 145.403C242.191 145.525 242.191 145.724 242.313 145.846C242.53 146.062 243.018 146.393 243.758 146.892C248.062 149.799 261.159 158.644 264.347 176.126C264.375 176.278 264.507 176.384 264.655 176.384Z" fill="#141414"/>
<path fill-rule="evenodd" clip-rule="evenodd" d="M272.481 124.365C275.554 125.14 276.935 129.614 274.096 134.833C272.627 137.534 273.65 139.025 273.935 140.794C274.863 146.564 272.76 147.377 272.525 148.934C272.289 150.49 273.468 153.832 273.277 155.858C272.879 160.073 268.952 164.591 263.733 160.55C259.247 157.077 259.337 149.362 261.03 147.721C262.722 146.081 263.146 146.533 261.825 142.975C260.791 140.191 261.371 136.544 263.336 134.863C264.938 133.492 265.881 134.147 265.811 130.553C265.747 127.245 267.707 123.16 272.481 124.365Z" fill="#FEBE2A"/>
<path fill-rule="evenodd" clip-rule="evenodd" d="M268.107 174.038C268.117 174.038 268.127 174.038 268.137 174.037C268.31 174.02 268.436 173.867 268.419 173.694C265.545 144.351 270.49 130.41 270.54 130.272C270.6 130.11 270.516 129.93 270.354 129.87C270.192 129.811 270.011 129.894 269.952 130.057C269.9 130.199 268.666 133.624 267.773 140.748C266.95 147.306 266.287 158.357 267.795 173.756C267.811 173.917 267.947 174.038 268.107 174.038Z" fill="#141414"/>
<path fill-rule="evenodd" clip-rule="evenodd" d="M293.882 139.511C295.526 141.219 294.695 145.919 291.312 147.109C289.142 147.872 289.371 149.594 288.852 150.83C287.159 154.86 285.503 154.545 284.737 155.44C283.972 156.335 284.169 159.354 283.429 160.684C281.885 163.458 276.844 164.42 275.128 159.791C273.654 155.811 274.573 151.613 277.919 150.124C279.522 149.411 280.015 149.956 280.442 147.148C280.869 144.341 282.349 142.479 284.261 142.188C285.82 141.952 285.972 142.843 287.744 141.115C289.517 139.388 291.327 136.858 293.882 139.511Z" fill="#FEBE2A"/>
<path fill-rule="evenodd" clip-rule="evenodd" d="M273.892 172.487C274.038 172.487 274.169 172.384 274.199 172.236C274.231 172.077 277.561 156.261 289.448 144.195C289.57 144.072 289.568 143.873 289.445 143.752C289.322 143.63 289.123 143.632 289.002 143.755C282.719 150.133 278.862 157.5 276.733 162.557C274.427 168.037 273.592 172.071 273.584 172.111C273.55 172.28 273.659 172.446 273.829 172.48C273.85 172.485 273.871 172.487 273.892 172.487Z" fill="#141414"/>
<path fill-rule="evenodd" clip-rule="evenodd" d="M250.688 170.192H286.288V176.169H283.706L279.739 203.567H257.236L253.269 176.169H250.688V170.192Z" fill="white"/>
<path fill-rule="evenodd" clip-rule="evenodd" d="M285.974 175.856H251.001V170.506H285.974V175.856ZM257.508 203.253H279.468L283.344 176.483H253.631L257.508 203.253ZM250.688 169.879H286.288C286.461 169.879 286.601 170.019 286.601 170.192V176.169C286.601 176.342 286.461 176.483 286.288 176.483H283.978L280.049 203.612C280.027 203.766 279.895 203.88 279.739 203.88H257.236C257.08 203.88 256.948 203.766 256.926 203.612L252.998 176.483H250.688C250.514 176.483 250.374 176.342 250.374 176.169V170.192C250.374 170.019 250.514 169.879 250.688 169.879Z" fill="#141414"/>
<path d="M126.971 12.6971C126.971 5.68468 132.656 0 139.668 0H218.672C225.685 0 231.369 5.68468 231.369 12.6971V191.554C231.369 198.567 225.685 204.251 218.672 204.251H139.668C132.656 204.251 126.971 198.567 126.971 191.554V12.6971Z" fill="white"/>
<path fill-rule="evenodd" clip-rule="evenodd" d="M218.672 3.7621H139.668C134.733 3.7621 130.733 7.76244 130.733 12.6971V191.554C130.733 196.488 134.733 200.489 139.668 200.489H218.672C223.607 200.489 227.607 196.488 227.607 191.554V12.6971C227.607 7.76244 223.607 3.7621 218.672 3.7621ZM139.668 0C132.656 0 126.971 5.68468 126.971 12.6971V191.554C126.971 198.567 132.656 204.251 139.668 204.251H218.672C225.685 204.251 231.369 198.567 231.369 191.554V12.6971C231.369 5.68468 225.685 0 218.672 0H139.668Z" fill="#141414"/>
<path fill-rule="evenodd" clip-rule="evenodd" d="M139.668 57.5397H218.808V25.3942H139.668V57.5397Z" fill="white"/>
<path fill-rule="evenodd" clip-rule="evenodd" d="M139.668 25.0807H218.808C218.981 25.0807 219.122 25.221 219.122 25.3942V57.5396C219.122 57.7128 218.981 57.8531 218.808 57.8531H139.668C139.495 57.8531 139.354 57.7128 139.354 57.5396V25.3942C139.354 25.221 139.495 25.0807 139.668 25.0807ZM218.495 57.226V25.7075H139.982V57.226H218.495Z" fill="#141414"/>
<path fill-rule="evenodd" clip-rule="evenodd" d="M146.394 50.6277H165.509V31.6605H146.394V50.6277Z" fill="#FFC81A"/>
<path fill-rule="evenodd" clip-rule="evenodd" d="M205.791 33.81C206.484 33.81 207.045 34.3713 207.045 35.064C207.045 35.7436 206.505 36.2967 205.83 36.3174L205.791 36.3181H170.483C169.79 36.3181 169.229 35.7566 169.229 35.064C169.229 34.3845 169.769 33.8312 170.444 33.8106L170.483 33.81H205.791ZM197.435 40.127C198.128 40.127 198.689 40.6884 198.689 41.3811C198.689 42.0604 198.149 42.6138 197.474 42.6345L197.435 42.6351H170.483C169.79 42.6351 169.229 42.0736 169.229 41.3811C169.229 40.7015 169.769 40.1482 170.444 40.1275L170.483 40.127H197.435ZM190.502 47.698C190.502 47.0054 189.94 46.4439 189.248 46.4439H170.483L170.444 46.4445C169.769 46.4652 169.229 47.0184 169.229 47.698C169.229 48.3906 169.79 48.952 170.483 48.952H189.248L189.287 48.9515C189.961 48.9308 190.502 48.3775 190.502 47.698Z" fill="#D3E2F2"/>
<path fill-rule="evenodd" clip-rule="evenodd" d="M139.668 97.9728H218.808V65.8273H139.668V97.9728Z" fill="white"/>
<path fill-rule="evenodd" clip-rule="evenodd" d="M139.668 65.5139H218.808C218.981 65.5139 219.122 65.6541 219.122 65.8274V97.9728C219.122 98.146 218.981 98.2863 218.808 98.2863H139.668C139.495 98.2863 139.354 98.146 139.354 97.9728V65.8274C139.354 65.6541 139.495 65.5139 139.668 65.5139ZM218.495 97.6591V66.1407H139.982V97.6591H218.495Z" fill="#141414"/>
<path fill-rule="evenodd" clip-rule="evenodd" d="M146.394 91.0609H165.509V72.0936H146.394V91.0609Z" fill="#FFC81A"/>
<path fill-rule="evenodd" clip-rule="evenodd" d="M205.791 74.2432C206.484 74.2432 207.045 74.8045 207.045 75.4972C207.045 76.1767 206.505 76.7299 205.83 76.7506L205.791 76.7512H170.483C169.79 76.7512 169.229 76.1897 169.229 75.4972C169.229 74.8177 169.769 74.2643 170.444 74.2436L170.483 74.2432H205.791ZM197.435 80.5601C198.128 80.5601 198.689 81.1215 198.689 81.8141C198.689 82.4936 198.149 83.0469 197.474 83.0676L197.435 83.0681H170.483C169.79 83.0681 169.229 82.5068 169.229 81.8141C169.229 81.1347 169.769 80.5814 170.444 80.5607L170.483 80.5601H197.435ZM190.502 88.1311C190.502 87.4386 189.94 86.8771 189.248 86.8771H170.483L170.444 86.8777C169.769 86.8984 169.229 87.4516 169.229 88.1311C169.229 88.8238 169.79 89.3851 170.483 89.3851H189.248L189.287 89.3845C189.961 89.364 190.502 88.8106 190.502 88.1311Z" fill="#D3E2F2"/>
<g opacity="0.553153">
<path fill-rule="evenodd" clip-rule="evenodd" d="M139.668 138.406H218.808V106.26H139.668V138.406Z" fill="white"/>
<path fill-rule="evenodd" clip-rule="evenodd" d="M139.668 105.947H218.808C218.981 105.947 219.122 106.087 219.122 106.261V138.406C219.122 138.579 218.981 138.719 218.808 138.719H139.668C139.495 138.719 139.354 138.579 139.354 138.406V106.261C139.354 106.087 139.495 105.947 139.668 105.947ZM218.495 138.092V106.574H139.982V138.092H218.495Z" fill="#141414"/>
<path fill-rule="evenodd" clip-rule="evenodd" d="M146.394 131.494H165.509V112.527H146.394V131.494Z" fill="#FFC81A"/>
<path fill-rule="evenodd" clip-rule="evenodd" d="M205.791 114.676C206.484 114.676 207.045 115.238 207.045 115.93C207.045 116.61 206.505 117.163 205.83 117.184L205.791 117.184H170.483C169.79 117.184 169.229 116.623 169.229 115.93C169.229 115.251 169.769 114.698 170.444 114.677L170.483 114.676H205.791ZM197.435 120.993C198.128 120.993 198.689 121.555 198.689 122.247C198.689 122.927 198.149 123.48 197.474 123.501L197.435 123.501H170.483C169.79 123.501 169.229 122.94 169.229 122.247C169.229 121.568 169.769 121.015 170.444 120.994L170.483 120.993H197.435ZM190.502 128.564C190.502 127.872 189.94 127.31 189.248 127.31H170.483L170.444 127.311C169.769 127.332 169.229 127.885 169.229 128.564C169.229 129.257 169.79 129.818 170.483 129.818H189.248L189.287 129.818C189.961 129.797 190.502 129.244 190.502 128.564Z" fill="#D3E2F2"/>
</g>
<g opacity="0.162202">
<path fill-rule="evenodd" clip-rule="evenodd" d="M139.668 178.839H218.808V146.694H139.668V178.839Z" fill="white"/>
<path fill-rule="evenodd" clip-rule="evenodd" d="M139.668 146.38H218.808C218.981 146.38 219.122 146.521 219.122 146.694V178.839C219.122 179.012 218.981 179.153 218.808 179.153H139.668C139.495 179.153 139.354 179.012 139.354 178.839V146.694C139.354 146.521 139.495 146.38 139.668 146.38ZM218.495 178.526V147.007H139.982V178.526H218.495Z" fill="#141414"/>
<path fill-rule="evenodd" clip-rule="evenodd" d="M146.394 171.928H165.509V152.96H146.394V171.928Z" fill="#FFC81A"/>
<path fill-rule="evenodd" clip-rule="evenodd" d="M205.791 155.11C206.484 155.11 207.045 155.671 207.045 156.364C207.045 157.043 206.505 157.596 205.83 157.616L205.791 157.618H170.483C169.79 157.618 169.229 157.057 169.229 156.364C169.229 155.684 169.769 155.131 170.444 155.11L170.483 155.11H205.791ZM197.435 161.427C198.128 161.427 198.689 161.988 198.689 162.681C198.689 163.36 198.149 163.913 197.474 163.934L197.435 163.935H170.483C169.79 163.935 169.229 163.372 169.229 162.681C169.229 162.001 169.769 161.448 170.444 161.427H170.483H197.435ZM190.502 168.998C190.502 168.305 189.94 167.744 189.248 167.744H170.483H170.444C169.769 167.765 169.229 168.318 169.229 168.998C169.229 169.69 169.79 170.252 170.483 170.252H189.248L189.287 170.251C189.961 170.23 190.502 169.677 190.502 168.998Z" fill="#D3E2F2"/>
</g>
<path fill-rule="evenodd" clip-rule="evenodd" d="M346.27 204.564H0V203.937H346.27V204.564Z" fill="#141414"/>
<path fill-rule="evenodd" clip-rule="evenodd" d="M171.329 173.043L185.422 187.841L177.502 194.998L162.782 184.565" fill="white"/>
<path fill-rule="evenodd" clip-rule="evenodd" d="M177.502 195.331C177.582 195.331 177.662 195.302 177.725 195.245L185.646 188.088C185.712 188.028 185.752 187.943 185.755 187.854C185.759 187.764 185.726 187.676 185.664 187.611L171.571 172.813C171.444 172.68 171.233 172.675 171.099 172.802C170.966 172.929 170.961 173.14 171.088 173.273L184.945 187.823L177.477 194.571L162.975 184.293C162.825 184.187 162.617 184.222 162.51 184.373C162.404 184.523 162.439 184.731 162.59 184.837L177.309 195.27C177.367 195.311 177.435 195.331 177.502 195.331Z" fill="#141414"/>
<path fill-rule="evenodd" clip-rule="evenodd" d="M183.037 184.195C182.881 184.145 182.712 184.225 182.652 184.378C182.594 184.524 182.524 184.71 182.44 184.929C181.931 186.269 180.87 189.057 179.412 191.42C179.411 191.422 179.41 191.424 179.409 191.426C178.549 192.817 177.412 193.805 176.207 194.209C176.112 194.241 176.037 194.317 176.007 194.414C174.557 199.119 173.51 202.519 173.616 205.584C173.634 206.122 173.895 208.184 174.827 208.432C175.258 208.546 175.685 208.268 176.094 207.606C177.59 205.186 180.825 199.982 183.679 195.391C185.989 191.676 187.983 188.467 188.731 187.257C188.81 187.13 188.824 186.978 188.769 186.831C188.45 185.976 184.655 184.702 183.037 184.195Z" fill="#FEBE2A"/>
<path fill-rule="evenodd" clip-rule="evenodd" d="M189.875 188.032L176.95 208.945C176.735 209.292 176.279 209.4 175.932 209.185L175.724 209.057C175.376 208.842 175.269 208.386 175.483 208.038L188.409 187.126C188.624 186.778 189.08 186.67 189.427 186.885L189.635 187.014C189.983 187.229 190.09 187.684 189.875 188.032Z" fill="#141414"/>
<path fill-rule="evenodd" clip-rule="evenodd" d="M175.953 200.12C175.887 200.226 175.765 200.291 175.632 200.276C174.423 200.144 174.123 201.14 174.093 201.254C174.046 201.431 173.865 201.538 173.688 201.493C173.51 201.447 173.402 201.267 173.447 201.09C173.593 200.51 174.253 199.455 175.705 199.614C175.888 199.634 176.02 199.798 176 199.981C175.995 200.032 175.978 200.079 175.953 200.12Z" fill="#141414"/>
<path fill-rule="evenodd" clip-rule="evenodd" d="M176.817 197.194C176.752 197.3 176.629 197.365 176.497 197.35C175.288 197.217 174.988 198.214 174.958 198.328C174.911 198.505 174.73 198.612 174.552 198.566C174.375 198.521 174.267 198.341 174.312 198.163C174.458 197.583 175.118 196.528 176.57 196.687C176.753 196.707 176.885 196.872 176.865 197.055C176.859 197.106 176.843 197.153 176.817 197.194Z" fill="#141414"/>
<path fill-rule="evenodd" clip-rule="evenodd" d="M117.066 195.535L114.116 208.788L102.432 210.005L104.001 192.983L117.066 195.535Z" fill="white"/>
<path fill-rule="evenodd" clip-rule="evenodd" d="M102.224 210.449C102.234 210.449 102.245 210.448 102.256 210.447L114.173 209.216C114.325 209.201 114.448 209.084 114.47 208.932L117.318 195.479C117.344 195.297 117.218 195.128 117.036 195.101C116.854 195.076 116.685 195.201 116.658 195.383L113.848 208.578L102.649 209.739L104.223 193.941C104.263 193.762 104.15 193.583 103.97 193.543C103.79 193.503 103.612 193.616 103.572 193.796L101.898 210.043C101.875 210.147 101.903 210.256 101.974 210.336C102.037 210.408 102.129 210.449 102.224 210.449Z" fill="#141414"/>
<path fill-rule="evenodd" clip-rule="evenodd" d="M115.144 207.834C115.103 207.675 114.946 207.574 114.785 207.603C114.63 207.631 114.435 207.668 114.205 207.712C112.798 207.983 109.868 208.547 107.092 208.549H107.085C105.449 208.549 104.011 208.102 103.034 207.289C102.957 207.225 102.853 207.202 102.755 207.227C97.9901 208.467 94.5473 209.364 91.9959 211.065C91.5475 211.364 89.9304 212.67 90.21 213.593C90.3395 214.02 90.8001 214.237 91.579 214.237C94.4233 214.237 100.551 214.252 105.957 214.267C110.332 214.278 114.11 214.288 115.532 214.288C115.682 214.288 115.818 214.22 115.914 214.096C116.474 213.376 115.562 209.477 115.144 207.834Z" fill="#FEBE2A"/>
<path fill-rule="evenodd" clip-rule="evenodd" d="M115.475 215.668H90.89C90.4815 215.668 90.1503 215.337 90.1503 214.929V214.684C90.1503 214.276 90.4815 213.944 90.89 213.944H115.475C115.883 213.944 116.215 214.276 116.215 214.684V214.929C116.215 215.337 115.883 215.668 115.475 215.668Z" fill="#141414"/>
<path fill-rule="evenodd" clip-rule="evenodd" d="M97.872 210.18C97.7473 210.18 97.6279 210.11 97.5708 209.99C97.0477 208.892 96.0428 209.161 95.9298 209.195C95.7545 209.248 95.568 209.15 95.5136 208.975C95.4592 208.8 95.5554 208.614 95.7302 208.559C96.3002 208.378 97.5445 208.385 98.1726 209.704C98.2518 209.87 98.1812 210.069 98.0151 210.148C97.9688 210.17 97.9201 210.18 97.872 210.18Z" fill="#141414"/>
<path fill-rule="evenodd" clip-rule="evenodd" d="M100.816 209.377C100.691 209.377 100.572 209.307 100.515 209.187C99.9914 208.089 98.9865 208.358 98.8738 208.392C98.6984 208.446 98.5118 208.347 98.4574 208.172C98.403 207.997 98.4994 207.811 98.6741 207.756C99.2446 207.575 100.489 207.582 101.116 208.901C101.196 209.067 101.125 209.266 100.959 209.345C100.913 209.367 100.864 209.377 100.816 209.377Z" fill="#141414"/>
<path fill-rule="evenodd" clip-rule="evenodd" d="M145.836 101.42C145.836 101.42 147.595 110.354 148.464 116.625C149.333 122.897 151.045 128.71 153.532 134.271C159.915 148.538 179.438 168.812 179.438 168.812C179.438 168.812 173.218 180.169 159.727 191.15C129.949 167.1 126.03 129.479 126.03 129.479C124.153 149.94 123.54 167.11 124.751 196.477C114.254 196.803 105.167 196.339 96.6532 192.464C95.4324 192.481 100.415 131.253 111.923 101.263L145.836 101.42Z" fill="#0B379B"/>
<g style="mix-blend-mode:soft-light">
<path fill-rule="evenodd" clip-rule="evenodd" d="M131.853 106.249C131.826 106.067 131.655 105.942 131.474 105.97C131.292 105.997 131.167 106.167 131.194 106.349C131.21 106.453 131.591 108.926 132.689 111.478C134.165 114.908 136.242 116.798 138.699 116.948C138.712 117.011 138.724 117.075 138.736 117.138C138.767 117.306 138.799 117.474 138.832 117.642C139.464 120.892 140.205 124.12 141.045 127.322L141.365 128.521C141.438 128.778 141.515 129.035 141.592 129.291C141.635 129.433 141.677 129.575 141.719 129.718L141.898 130.315L141.905 130.339C141.962 130.531 142.018 130.722 142.088 130.91L142.499 132.086L142.704 132.675C142.75 132.802 142.8 132.926 142.85 133.052C142.877 133.119 142.904 133.187 142.93 133.255L143.389 134.413C143.513 134.74 143.653 135.059 143.794 135.378C143.821 135.439 143.847 135.499 143.874 135.559L144.374 136.699C145.744 139.721 147.328 142.638 149.032 145.477C152.439 151.157 156.301 156.546 160.408 161.729C162.463 164.321 164.582 166.861 166.76 169.35C167.846 170.597 168.942 171.835 170.058 173.055C171.174 174.278 172.299 175.486 173.46 176.674C173.58 176.798 173.779 176.8 173.903 176.679C174.027 176.558 174.029 176.359 173.908 176.236L173.908 176.235L173.904 176.231C169.293 171.529 164.946 166.545 160.848 161.381C158.798 158.797 156.813 156.163 154.914 153.468C153.018 150.771 151.198 148.021 149.52 145.185C147.843 142.351 146.289 139.443 144.95 136.439L144.462 135.308C144.436 135.248 144.41 135.188 144.384 135.128C144.247 134.811 144.109 134.494 143.989 134.17L143.543 133.022C143.517 132.955 143.491 132.887 143.464 132.82C143.416 132.696 143.367 132.572 143.323 132.447L143.124 131.865L142.725 130.701C142.659 130.519 142.605 130.333 142.552 130.147L142.542 130.114L142.37 129.524C142.33 129.386 142.289 129.247 142.249 129.108C142.174 128.854 142.099 128.6 142.028 128.344L141.718 127.148C140.589 122.737 139.644 118.273 138.948 113.777C138.921 113.623 138.919 113.597 138.916 113.564C138.913 113.523 138.908 113.47 138.855 113.154C138.585 111.351 138.355 109.542 138.171 107.73L138.171 107.728C138.146 107.485 137.929 107.309 137.687 107.333C137.444 107.358 137.268 107.575 137.292 107.817C137.292 107.818 137.293 107.821 137.293 107.822C137.612 110.656 138.049 113.471 138.57 116.269C133.352 115.752 131.868 106.346 131.853 106.249ZM123.353 121.693C123.262 121.862 121.107 125.963 119.031 137.187C117.12 147.515 114.935 166.082 115.379 195.886C115.382 196.057 115.522 196.195 115.692 196.195H115.697C115.87 196.192 116.009 196.05 116.006 195.876C115.564 166.174 117.735 147.667 119.634 137.372C121.692 126.215 123.884 122.03 123.906 121.989C123.987 121.836 123.93 121.646 123.777 121.565C123.625 121.483 123.435 121.54 123.353 121.693Z" fill="white" fill-opacity="0.5"/>
</g>
<path fill-rule="evenodd" clip-rule="evenodd" d="M147.139 101.863C147.357 100.092 148.96 88.4267 149.334 81.8286C151.993 82.3893 152.361 70.2921 148.922 62.5442C143.444 50.2013 124.639 54.0603 124.639 54.0603C124.639 54.0603 119.021 53.7973 113.475 58.3364C110.996 60.3655 108.266 64.8963 106.908 69.8712C107.333 71.247 111.826 77.4145 113.465 78.4638C110.932 90.7654 108.928 101.863 108.928 101.863C108.928 101.863 141.578 102.373 147.139 101.863Z" fill="#FEBE2A"/>
<path fill-rule="evenodd" clip-rule="evenodd" d="M109.299 101.718C109.656 99.6789 111.515 89.4904 113.772 78.527C113.798 78.3999 113.743 78.2698 113.634 78.1998C112.051 77.186 107.775 71.29 107.235 69.8608C108.524 65.2068 111.104 60.6821 113.673 58.5791C119.054 54.1757 124.57 54.3704 124.625 54.3735C124.651 54.3742 124.677 54.3726 124.702 54.3674C124.749 54.358 129.431 53.4178 134.708 53.987C137.791 54.3196 140.471 55.0946 142.674 56.2908C145.41 57.7763 147.416 59.9231 148.635 62.6715C149.972 65.6835 150.856 69.7052 151.058 73.7054C151.24 77.2734 150.834 80.2251 150.025 81.225C149.759 81.5531 149.54 81.552 149.398 81.5218C149.309 81.5031 149.216 81.5241 149.143 81.5795C149.071 81.6351 149.026 81.7194 149.021 81.8108C148.698 87.5088 147.371 96.6545 146.872 100.51C146.817 100.935 146.773 101.279 146.741 101.529C140.956 101.954 112.822 101.834 109.299 101.718ZM147.049 102.132C147.196 102.119 147.313 102.005 147.331 101.858C147.361 101.62 147.417 101.184 147.494 100.591C147.985 96.7972 149.276 87.9285 149.629 82.1544C149.9 82.1253 150.213 81.9887 150.512 81.6194C151.427 80.4891 151.876 77.4444 151.685 73.6737C151.478 69.5995 150.575 65.4966 149.208 62.417C146.921 57.2622 141.924 54.131 134.76 53.362C129.643 52.8124 125.079 53.6558 124.615 53.7457C124.06 53.7266 118.671 53.6785 113.276 58.0938C110.597 60.2868 107.916 64.9864 106.605 69.7886C106.589 69.8461 106.59 69.9068 106.608 69.9637C107.013 71.2754 111.264 77.2073 113.116 78.6022C110.631 90.6936 108.639 101.851 108.619 101.966C108.603 102.056 108.627 102.147 108.685 102.218C108.742 102.288 108.827 102.33 108.917 102.333C109.988 102.369 130.508 102.271 141.326 102.271C143.935 102.271 145.977 102.231 147.049 102.132Z" fill="#141414"/>
<path fill-rule="evenodd" clip-rule="evenodd" d="M132.384 49.2405C132.384 49.2405 132.597 54.6388 134.828 55.4098C135.434 58.4439 131.322 60.5158 128.197 60.369C122.146 60.085 124.029 55.1392 124.445 55.1257C124.433 54.5058 124.099 49.8687 124.099 49.8687L132.384 49.2405Z" fill="white"/>
<path fill-rule="evenodd" clip-rule="evenodd" d="M134.53 55.6485C134.638 56.442 134.392 57.194 133.797 57.8862C132.642 59.2297 130.294 60.1353 128.212 60.0361C126.133 59.9384 124.796 59.2462 124.346 58.0343C123.924 56.8961 124.389 55.6618 124.577 55.4322C124.698 55.3801 124.781 55.2588 124.779 55.1193C124.768 54.5885 124.532 51.2561 124.455 50.1759L132.072 49.5985C132.16 50.8056 132.595 54.7476 134.53 55.6485ZM128.515 60.7098C130.698 60.7098 133.087 59.7348 134.303 58.3209C135.071 57.4277 135.365 56.3982 135.154 55.3445C135.131 55.2284 135.048 55.1334 134.937 55.0948C133.285 54.5241 132.775 50.6657 132.717 49.2274C132.714 49.1369 132.674 49.0518 132.606 48.9916C132.538 48.9314 132.449 48.9021 132.359 48.908L124.074 49.5362C123.891 49.5501 123.753 49.7094 123.766 49.8926C123.769 49.9359 124.059 53.9579 124.106 54.9689C123.743 55.36 123.513 56.3186 123.508 56.9975C123.501 57.9488 123.827 58.7788 124.451 59.3978C125.244 60.1844 126.499 60.6231 128.181 60.7021C128.292 60.7072 128.403 60.7098 128.515 60.7098Z" fill="#141414"/>
<path fill-rule="evenodd" clip-rule="evenodd" d="M106.92 69.8229L115.519 71.028L114.57 76.5779C114.57 76.5779 126.946 75.3792 131.197 73.9718C133.336 73.2635 136.102 74.0521 137.185 76.2786C137.758 77.4565 137.389 80.5214 137.389 80.5214C137.389 80.5214 133.403 80.467 132.264 80.467C132.147 80.467 131.997 80.5061 131.817 80.5764L137.54 80.6375L137.827 72.3772L151.299 72.5474C151.299 72.5474 153.858 90.3382 143.618 93.1079C134.289 95.6317 123.016 87.0903 122.135 86.4075C117.757 88.6862 112.553 90.4735 107.652 89.2225C101.454 87.6403 106.666 70.5245 106.92 69.8229Z" fill="white"/>
<path fill-rule="evenodd" clip-rule="evenodd" d="M105.786 87.2973C106.25 88.1728 106.885 88.7031 107.729 88.9187C115.306 90.8527 123.542 85.45 128.464 82.2223C130.092 81.1546 131.088 80.5121 131.744 80.2677C131.746 80.2658 131.748 80.2639 131.75 80.2621L131.76 80.2622C131.956 80.1907 132.122 80.1534 132.264 80.1534C133.214 80.1534 136.173 80.1915 137.108 80.2041C137.203 79.2168 137.298 77.2262 136.903 76.4158C136.079 74.7213 133.756 73.455 131.295 74.2695C127.072 75.6678 115.175 76.8342 114.606 76.8895L112.558 77.1624C112.544 77.1643 112.53 77.1652 112.516 77.1652C112.361 77.1652 112.226 77.0506 112.205 76.8931C112.183 76.7215 112.303 76.5638 112.475 76.5409L114.3 76.2976L115.156 71.2935L107.136 70.1698C106.867 71.0306 106.051 73.8663 105.492 77.113C104.673 81.8671 104.775 85.3887 105.786 87.2973ZM139.989 93.2557C141.188 93.2557 142.38 93.1183 143.537 92.8054C147.647 91.6935 150.153 87.9773 150.986 81.7597C151.528 77.7209 151.145 73.8822 151.023 72.8575L138.13 72.6944L137.854 80.6483C137.848 80.8185 137.706 80.9493 137.537 80.951L131.869 80.8903C131.225 81.1617 130.087 81.9077 128.808 82.7465C127.116 83.8563 125.038 85.2182 122.726 86.4586C124.663 87.8798 132.488 93.2562 139.989 93.2557ZM106.625 69.7164C106.675 69.5771 106.816 69.4923 106.963 69.5123L115.271 70.6765L116.314 65.5062C116.349 65.3364 116.514 65.2264 116.683 65.2608C116.853 65.2952 116.963 65.4604 116.929 65.6302L115.828 71.0858L114.948 76.2249C117.124 76.0027 127.362 74.9109 131.098 73.6743C132.227 73.3006 133.536 73.3207 134.692 73.729C135.881 74.1499 136.832 74.9493 137.388 75.9893L137.512 72.4167C137.511 72.4032 137.509 72.39 137.509 72.3762L137.619 65.9962C137.622 65.8231 137.757 65.682 137.938 65.6882C138.111 65.6911 138.249 65.8339 138.246 66.007L138.141 72.0676L151.303 72.2339C151.458 72.2359 151.588 72.35 151.61 72.5029C151.616 72.5477 152.248 77.0489 151.61 81.8305C150.754 88.2382 148.019 92.2425 143.7 93.4106C142.486 93.7392 141.24 93.8809 139.995 93.8809C135.998 93.8809 132.006 92.4224 129.068 91.0033C125.568 89.3121 122.886 87.3671 122.111 86.783C118.737 88.5279 114.909 89.9539 111.07 89.9539C109.902 89.9539 108.732 89.8217 107.574 89.5262C106.564 89.2681 105.775 88.6169 105.232 87.5909C102.541 82.5124 106.581 69.8384 106.625 69.7164Z" fill="#141414"/>
<path fill-rule="evenodd" clip-rule="evenodd" d="M121.034 41.8178C121.974 34.0209 127.462 33.5317 131.164 34.2049C134.114 34.7414 137.889 37.1806 137.555 42.0881C139.032 41.6086 140.111 42.5066 140.302 43.6739C140.52 44.9987 139.825 47.2395 137.637 46.8535C137.427 50.4581 134.148 55.6912 126.993 55.1675C121.575 54.7709 120.178 48.9147 121.034 41.8178Z" fill="white"/>
<path fill-rule="evenodd" clip-rule="evenodd" d="M137.428 46.6766C137.066 48.4145 136.573 50.7755 134.367 52.6422C131.731 55.043 125.773 56.161 123.094 52.911C121.157 50.831 120.607 45.2714 121.574 40.4906C121.813 39.9303 122.176 39.4999 122.514 39.0999C122.89 38.6533 123.235 38.2445 123.34 37.7351C125.55 38.4648 128.547 38.334 129.734 35.9203C129.734 36.5589 131.51 38.7436 134.123 38.5113C134.123 38.5113 133.665 39.8023 134.58 41.3086C135.75 42.8187 136.625 42.6094 137.476 42.4061C138.036 42.2722 138.586 42.1409 139.202 42.5027C140.373 43.24 140.219 45.1364 139.312 46.1108C138.902 46.5162 138.357 46.6621 137.692 46.5447C137.604 46.5294 137.513 46.5519 137.443 46.6076C137.438 46.6305 137.433 46.6535 137.428 46.6766ZM121.07 36.2656C118.841 37.1378 118.965 41.6918 119.484 41.6918C117.98 42.072 118.247 44.8162 119.198 44.9027C117.728 46.1133 117.958 50.2803 119.293 50.6866C115.307 58.7466 125.94 61.0732 125.272 55.1471C127.919 55.9487 131.218 55.4374 133.445 54.0854C133.385 55.0327 133.785 56.0981 134.022 56.7314C134.032 56.7563 134.041 56.7806 134.05 56.8041C135.436 60.5071 143.9 60.5071 145.781 57.0585C147.662 53.61 146.877 50.9243 144.791 49.6072C147.7 47.5221 147.151 42.8577 144.331 42.3147C145.559 38.9994 144.501 35.4565 140.828 35.7521C140.847 31.7887 137.528 30.0411 134.639 30.5955C134.3 28.7055 129.648 28.2209 128.63 30.1593C123.714 28.3025 120.2 32.9429 121.07 36.2656ZM138.336 44.5381C138.454 44.7055 138.576 44.8792 138.726 44.8526C139.285 44.7522 138.905 43.6789 138.52 43.393C137.784 42.9068 137.387 43.7206 138.135 44.2962C138.203 44.3489 138.269 44.4425 138.336 44.5381Z" fill="#141414"/>
<path fill-rule="evenodd" clip-rule="evenodd" d="M132.299 42.5008C132.416 42.4851 132.534 42.4694 132.651 42.472C132.973 42.4641 133.271 42.5307 133.581 42.6345C133.797 42.7079 133.966 42.4154 133.804 42.2635C133.375 41.8106 132.704 41.6457 132.098 41.7101C131.721 41.693 131.112 42.2025 131.644 42.4684C131.862 42.5593 132.08 42.5301 132.299 42.5008ZM126.01 44.5027C125.423 44.064 124.614 44.1682 124.07 44.5756C123.787 44.7725 124.084 45.2194 124.374 45.0399C124.577 44.9181 124.805 44.8488 125.021 44.8526C125.197 44.8275 125.348 44.9197 125.49 45.007C125.684 45.1249 125.862 45.2338 126.067 45.0314C126.212 44.8764 126.184 44.6233 126.01 44.5027ZM127.759 46.2311C125.793 47.0262 126.626 49.1068 128.606 48.3089C128.914 48.0546 128.558 47.7809 128.264 47.9063L128.24 47.9078L128.223 47.9089C127.847 47.932 127.105 47.9779 127.277 47.4155C127.332 47.1832 127.564 47.0466 127.796 46.9093C128.029 46.7717 128.264 46.6333 128.323 46.3971C128.453 46.0845 128.59 44.2577 128.152 44.2839C128.059 44.298 127.993 44.3805 127.998 44.4722C127.998 44.5339 127.998 44.5966 127.999 44.6598C128.002 45.1927 128.005 45.7668 127.759 46.2311ZM130.704 45.3183C130.601 45.3801 130.466 45.3691 130.373 45.2835C129.996 44.7677 131.198 44.2187 131.645 44.2576C132.154 44.1652 133.802 44.9609 133.426 45.5539C133.32 45.6677 133.14 45.6718 133.028 45.5632C132.701 45.2552 132.322 45.0152 131.881 44.96C131.432 44.8837 131.104 45.0766 130.704 45.3183ZM123.643 42.5343C124.28 41.9743 125.232 41.6242 126.057 41.9974C126.295 42.0991 126.238 42.4847 125.974 42.5064C125.799 42.5258 125.625 42.5298 125.452 42.5339C125.093 42.5423 124.739 42.5505 124.389 42.6946L123.844 42.8901C123.636 42.9724 123.461 42.6733 123.643 42.5343ZM128.468 50.2105C128.744 50.1929 129.022 50.1638 129.292 50.1254C129.304 50.3597 129.304 50.606 129.253 50.8326C128.95 50.8803 128.637 50.8578 128.33 50.8357C128.314 50.8346 128.299 50.8335 128.284 50.8325C128.439 50.6596 128.452 50.4523 128.466 50.242C128.466 50.2315 128.467 50.221 128.468 50.2105ZM128.002 50.231C127.979 50.4142 127.952 50.6294 128.06 50.7845C128.064 50.7919 128.07 50.7976 128.075 50.8034C128.077 50.8057 128.079 50.808 128.081 50.8104C128.018 50.8021 127.951 50.7948 127.882 50.7873C127.637 50.7605 127.372 50.7315 127.176 50.6499C127.104 50.5454 127.118 50.3665 127.129 50.2223C127.129 50.214 127.13 50.2057 127.13 50.1976C127.397 50.2177 127.701 50.2326 128.002 50.2285L128.002 50.231ZM125.358 49.3243C125.296 49.2416 125.188 49.1997 125.086 49.2212C124.872 49.2682 124.808 49.4628 124.868 49.6263C124.925 51.0927 125.912 52.6077 128.541 52.6077C129.885 52.6077 131.332 51.6321 131.332 49.4902C131.351 49.3179 131.309 49.103 131.107 49.0713C129.858 49.6756 126.993 49.9264 125.358 49.3243Z" fill="#141414"/>
<path fill-rule="evenodd" clip-rule="evenodd" d="M222.429 190.272C222.211 188.502 220.608 176.836 220.234 170.238C217.575 170.799 217.208 158.701 220.646 150.953C226.124 138.611 244.929 142.47 244.929 142.47C244.929 142.47 250.547 142.207 256.093 146.746C258.573 148.775 261.303 153.306 262.661 158.28C262.236 159.656 257.742 165.824 256.104 166.873C258.636 179.175 260.64 190.272 260.64 190.272C260.64 190.272 227.99 190.782 222.429 190.272Z" fill="#7BBFF7"/>
<path fill-rule="evenodd" clip-rule="evenodd" d="M260.27 190.128C259.912 188.088 258.054 177.9 255.797 166.936C255.77 166.809 255.825 166.679 255.935 166.609C257.518 165.595 261.793 159.699 262.333 158.27C261.045 153.616 258.465 149.091 255.895 146.988C250.515 142.585 244.998 142.78 244.944 142.783C244.917 142.784 244.892 142.782 244.866 142.777C244.819 142.767 240.138 141.827 234.861 142.396C231.777 142.729 229.097 143.504 226.894 144.7C224.158 146.186 222.153 148.332 220.933 151.081C219.596 154.093 218.713 158.115 218.51 162.115C218.329 165.683 218.734 168.634 219.544 169.634C219.81 169.962 220.028 169.961 220.17 169.931C220.26 169.912 220.353 169.933 220.425 169.989C220.498 170.044 220.542 170.129 220.548 170.22C220.87 175.918 222.197 185.064 222.696 188.92C222.751 189.344 222.796 189.689 222.828 189.938C228.612 190.363 256.746 190.243 260.27 190.128ZM222.52 190.542C222.373 190.528 222.255 190.414 222.237 190.268C222.208 190.03 222.151 189.593 222.074 189C221.583 185.207 220.292 176.338 219.94 170.564C219.669 170.535 219.355 170.398 219.056 170.029C218.141 168.898 217.692 165.854 217.884 162.083C218.091 158.009 218.993 153.906 220.36 150.826C222.648 145.672 227.644 142.54 234.809 141.771C239.925 141.222 244.49 142.065 244.954 142.155C245.509 142.136 250.897 142.088 256.292 146.503C258.972 148.696 261.653 153.396 262.963 158.198C262.979 158.255 262.978 158.316 262.96 158.373C262.555 159.685 258.304 165.617 256.452 167.012C258.938 179.103 260.93 190.261 260.949 190.376C260.965 190.465 260.941 190.557 260.884 190.627C260.827 190.697 260.742 190.739 260.651 190.743C259.58 190.779 239.06 190.68 228.242 190.68C225.634 190.68 223.592 190.64 222.52 190.542Z" fill="#141414"/>
<path fill-rule="evenodd" clip-rule="evenodd" d="M237.184 137.65C237.184 137.65 236.971 143.048 234.741 143.819C234.134 146.853 238.246 148.925 241.372 148.778C247.423 148.494 245.539 143.549 245.123 143.535C245.135 142.915 245.47 138.278 245.47 138.278L237.184 137.65Z" fill="white"/>
<path fill-rule="evenodd" clip-rule="evenodd" d="M235.038 144.058C234.93 144.851 235.176 145.603 235.771 146.296C236.926 147.639 239.274 148.545 241.356 148.445C243.436 148.348 244.773 147.656 245.222 146.444C245.644 145.305 245.179 144.071 244.992 143.842C244.871 143.789 244.787 143.668 244.79 143.529C244.8 142.998 245.036 139.665 245.113 138.585L237.497 138.008C237.408 139.215 236.973 143.157 235.038 144.058ZM241.054 149.119C238.87 149.119 236.481 148.144 235.266 146.73C234.498 145.837 234.203 144.808 234.414 143.754C234.437 143.638 234.52 143.543 234.632 143.504C236.283 142.933 236.794 139.075 236.851 137.637C236.855 137.546 236.895 137.461 236.962 137.401C237.03 137.341 237.12 137.311 237.209 137.317L245.495 137.946C245.678 137.959 245.815 138.119 245.802 138.302C245.799 138.345 245.509 142.367 245.463 143.378C245.825 143.769 246.056 144.728 246.061 145.407C246.068 146.358 245.741 147.188 245.117 147.807C244.324 148.594 243.069 149.032 241.387 149.112C241.277 149.117 241.165 149.119 241.054 149.119Z" fill="#141414"/>
<path fill-rule="evenodd" clip-rule="evenodd" d="M262.649 158.232L254.049 159.437L254.999 164.987C254.999 164.987 242.623 163.789 238.372 162.381C236.232 161.673 233.467 162.462 232.383 164.688C231.81 165.866 232.179 168.931 232.179 168.931C232.179 168.931 236.166 168.876 237.305 168.876C237.421 168.876 237.572 168.916 237.751 168.986L232.028 169.047L231.741 160.787L218.269 160.957C218.269 160.957 215.71 178.748 225.95 181.517C235.28 184.041 246.552 175.5 247.433 174.817C251.811 177.096 257.016 178.883 261.917 177.632C268.115 176.05 262.902 158.934 262.649 158.232Z" fill="white"/>
<path fill-rule="evenodd" clip-rule="evenodd" d="M263.783 175.707C263.319 176.582 262.683 177.113 261.839 177.328C254.263 179.262 246.026 173.859 241.104 170.632C239.477 169.564 238.48 168.922 237.824 168.677C237.822 168.675 237.82 168.673 237.819 168.671L237.808 168.672C237.613 168.6 237.446 168.563 237.304 168.563C236.354 168.563 233.395 168.601 232.461 168.613C232.365 167.626 232.271 165.636 232.665 164.825C233.49 163.131 235.812 161.864 238.273 162.679C242.497 164.077 254.393 165.244 254.963 165.299L257.011 165.572C257.025 165.574 257.039 165.575 257.053 165.575C257.207 165.575 257.342 165.46 257.363 165.303C257.386 165.131 257.265 164.973 257.094 164.95L255.269 164.707L254.412 159.703L262.432 158.579C262.701 159.44 263.517 162.276 264.076 165.522C264.895 170.276 264.794 173.798 263.783 175.707ZM229.579 181.665C228.38 181.665 227.189 181.528 226.032 181.215C221.922 180.103 219.415 176.387 218.582 170.169C218.041 166.13 218.424 162.292 218.546 161.267L231.438 161.104L231.715 169.058C231.721 169.228 231.862 169.359 232.031 169.36L237.699 169.3C238.343 169.571 239.482 170.317 240.76 171.156C242.453 172.266 244.531 173.628 246.842 174.868C244.905 176.289 237.08 181.666 229.579 181.665ZM262.943 158.126C262.893 157.986 262.752 157.902 262.605 157.922L254.298 159.086L253.254 153.916C253.22 153.746 253.054 153.636 252.885 153.67C252.715 153.705 252.605 153.87 252.639 154.04L253.741 159.495L254.62 164.634C252.444 164.412 242.206 163.32 238.47 162.084C237.342 161.71 236.032 161.73 234.877 162.138C233.687 162.559 232.736 163.359 232.18 164.399L232.056 160.826C232.058 160.813 232.06 160.799 232.059 160.786L231.95 154.406C231.947 154.233 231.811 154.091 231.631 154.098C231.458 154.101 231.32 154.243 231.323 154.416L231.427 160.477L218.265 160.643C218.111 160.645 217.981 160.759 217.959 160.912C217.952 160.957 217.32 165.458 217.959 170.24C218.815 176.648 221.55 180.652 225.868 181.82C227.083 182.149 228.328 182.29 229.574 182.29C233.57 182.29 237.562 180.832 240.5 179.413C244.001 177.722 246.683 175.777 247.457 175.192C250.831 176.937 254.66 178.363 258.498 178.363C259.667 178.363 260.836 178.231 261.994 177.936C263.005 177.677 263.793 177.026 264.337 176C267.027 170.922 262.988 158.248 262.943 158.126Z" fill="#141414"/>
<path fill-rule="evenodd" clip-rule="evenodd" d="M322.005 198.875L334.121 199.522L334.066 210.262L321.915 210.008" fill="white"/>
<path fill-rule="evenodd" clip-rule="evenodd" d="M334.066 210.6C334.064 210.6 334.062 210.6 334.06 210.6L321.909 210.346C321.736 210.343 321.598 210.188 321.601 210.002C321.605 209.815 321.747 209.667 321.921 209.67L333.754 209.917L333.805 199.844L321.989 199.213C321.816 199.204 321.683 199.045 321.692 198.859C321.7 198.672 321.853 198.531 322.02 198.538L334.136 199.185C334.304 199.194 334.435 199.343 334.434 199.524L334.379 210.264C334.379 210.354 334.345 210.441 334.285 210.504C334.226 210.565 334.147 210.6 334.066 210.6Z" fill="#141414"/>
<path fill-rule="evenodd" clip-rule="evenodd" d="M332.723 211.41C332.564 211.367 332.463 211.197 332.492 211.023C332.519 210.856 332.557 210.646 332.601 210.398C332.872 208.88 333.436 205.72 333.438 202.726V202.718C333.438 200.954 332.986 200.112 332.174 199.059C332.109 198.975 332.086 198.863 332.111 198.758C333.352 193.618 334.253 189.196 335.954 186.444C336.253 185.96 337.559 184.216 338.482 184.518C338.909 184.658 339.126 185.154 339.126 185.994C339.126 189.062 339.141 195.671 339.155 201.502C339.167 206.22 339.177 210.295 339.177 211.829C339.177 211.991 339.109 212.137 338.985 212.241C338.264 212.845 334.366 211.861 332.723 211.41Z" fill="#7BBFF7"/>
<path fill-rule="evenodd" clip-rule="evenodd" d="M335.069 192.782C335.069 192.647 334.999 192.518 334.879 192.457C333.781 191.893 334.05 190.809 334.084 190.687C334.137 190.498 334.039 190.297 333.864 190.238C333.689 190.18 333.503 190.283 333.448 190.472C333.267 191.087 333.274 192.428 334.593 193.106C334.759 193.191 334.958 193.115 335.037 192.936C335.059 192.886 335.069 192.834 335.069 192.782Z" fill="#141414"/>
<path fill-rule="evenodd" clip-rule="evenodd" d="M334.267 195.957C334.267 195.822 334.196 195.694 334.076 195.632C332.978 195.068 333.247 193.984 333.281 193.862C333.335 193.673 333.236 193.472 333.062 193.413C332.886 193.355 332.701 193.459 332.645 193.647C332.464 194.262 332.471 195.604 333.79 196.281C333.956 196.367 334.155 196.291 334.234 196.111C334.256 196.061 334.267 196.009 334.267 195.957Z" fill="#141414"/>
<path fill-rule="evenodd" clip-rule="evenodd" d="M222.846 186.687C222.846 186.687 221.758 212.539 238.416 212.539C260.489 212.539 324.727 213.142 324.727 213.142L324.832 195.661L252.252 186.648L222.846 186.687Z" fill="#141414"/>
<g style="mix-blend-mode:overlay">
<path fill-rule="evenodd" clip-rule="evenodd" d="M257.29 205.227C257.287 205.227 257.283 205.227 257.279 205.227L255.713 205.169C255.54 205.162 255.404 205.006 255.41 204.819C255.416 204.632 255.563 204.488 255.735 204.493L257.301 204.551C257.474 204.558 257.61 204.714 257.604 204.901C257.598 205.083 257.459 205.227 257.29 205.227ZM260.737 205.356C260.733 205.356 260.729 205.355 260.726 205.355L259.159 205.297C258.986 205.291 258.851 205.134 258.857 204.948C258.863 204.761 259.008 204.615 259.181 204.621L260.748 204.68C260.921 204.686 261.056 204.843 261.05 205.029C261.044 205.212 260.905 205.356 260.737 205.356ZM264.184 205.484C264.18 205.484 264.176 205.484 264.172 205.484L262.606 205.426C262.433 205.419 262.297 205.263 262.303 205.076C262.309 204.889 262.453 204.743 262.628 204.75L264.194 204.808C264.367 204.814 264.503 204.971 264.497 205.157C264.491 205.34 264.352 205.484 264.184 205.484ZM267.63 205.613C267.627 205.613 267.623 205.613 267.619 205.612L266.052 205.554C265.879 205.548 265.744 205.391 265.75 205.204C265.756 205.018 265.902 204.874 266.074 204.878L267.641 204.936C267.814 204.943 267.949 205.099 267.943 205.286C267.938 205.469 267.798 205.613 267.63 205.613ZM271.077 205.741C271.073 205.741 271.069 205.741 271.066 205.741L269.499 205.682C269.326 205.676 269.19 205.519 269.196 205.333C269.202 205.146 269.348 205.002 269.521 205.007L271.087 205.065C271.26 205.071 271.396 205.228 271.39 205.415C271.384 205.597 271.245 205.741 271.077 205.741ZM274.523 205.869C274.519 205.869 274.516 205.869 274.512 205.869L272.945 205.811C272.773 205.804 272.637 205.648 272.643 205.461C272.649 205.275 272.793 205.129 272.967 205.135L274.534 205.193C274.707 205.2 274.842 205.356 274.836 205.543C274.831 205.726 274.691 205.869 274.523 205.869ZM277.97 205.998C277.966 205.998 277.962 205.998 277.959 205.998L276.392 205.939C276.219 205.933 276.084 205.776 276.09 205.59C276.095 205.403 276.242 205.256 276.414 205.263L277.98 205.322C278.153 205.328 278.289 205.485 278.283 205.671C278.277 205.854 278.138 205.998 277.97 205.998ZM281.416 206.126C281.413 206.126 281.409 206.126 281.405 206.126L279.839 206.068C279.666 206.061 279.53 205.905 279.536 205.718C279.542 205.531 279.687 205.388 279.86 205.392L281.427 205.45C281.6 205.457 281.735 205.613 281.729 205.8C281.723 205.983 281.584 206.126 281.416 206.126ZM284.863 206.255C284.859 206.255 284.855 206.255 284.852 206.255L283.285 206.196C283.112 206.19 282.977 206.033 282.983 205.846C282.988 205.66 283.136 205.515 283.307 205.52L284.873 205.579C285.046 205.585 285.182 205.742 285.176 205.928C285.17 206.111 285.031 206.255 284.863 206.255ZM288.309 206.383C288.306 206.383 288.302 206.383 288.298 206.383L286.732 206.325C286.559 206.318 286.423 206.162 286.429 205.975C286.435 205.788 286.581 205.643 286.753 205.649L288.32 205.707C288.493 205.714 288.628 205.87 288.622 206.057C288.617 206.239 288.477 206.383 288.309 206.383ZM291.756 206.512C291.752 206.512 291.748 206.512 291.745 206.511L290.178 206.453C290.005 206.446 289.87 206.29 289.876 206.103C289.882 205.917 290.027 205.77 290.2 205.777L291.767 205.835C291.94 205.842 292.075 205.998 292.069 206.185C292.063 206.368 291.924 206.512 291.756 206.512ZM295.202 206.64C295.199 206.64 295.195 206.64 295.191 206.64L293.625 206.582C293.452 206.575 293.316 206.418 293.322 206.232C293.328 206.045 293.472 205.901 293.646 205.906L295.213 205.964C295.386 205.97 295.522 206.127 295.516 206.314C295.51 206.496 295.371 206.64 295.202 206.64ZM298.649 206.769C298.645 206.769 298.642 206.768 298.638 206.768L297.071 206.71C296.898 206.704 296.763 206.547 296.769 206.36C296.775 206.174 296.918 206.029 297.093 206.034L298.66 206.093C298.833 206.099 298.968 206.255 298.962 206.442C298.956 206.625 298.817 206.769 298.649 206.769ZM302.095 206.897C302.092 206.897 302.088 206.897 302.084 206.897L300.518 206.838C300.345 206.832 300.209 206.675 300.215 206.489C300.221 206.302 300.363 206.156 300.539 206.162L302.106 206.221C302.279 206.227 302.415 206.384 302.409 206.57C302.403 206.753 302.264 206.897 302.095 206.897ZM305.542 207.025C305.538 207.025 305.535 207.025 305.531 207.025L303.964 206.967C303.791 206.96 303.656 206.804 303.662 206.617C303.668 206.431 303.815 206.284 303.986 206.291L305.553 206.349C305.726 206.356 305.861 206.512 305.855 206.699C305.849 206.882 305.71 207.025 305.542 207.025ZM308.988 207.154C308.985 207.154 308.981 207.154 308.977 207.154L307.411 207.095C307.238 207.089 307.102 206.932 307.108 206.746C307.114 206.559 307.261 206.415 307.433 206.42L308.999 206.478C309.172 206.484 309.308 206.641 309.302 206.827C309.296 207.01 309.157 207.154 308.988 207.154ZM312.435 207.282C312.431 207.282 312.428 207.282 312.424 207.282L310.857 207.224C310.684 207.217 310.549 207.061 310.555 206.874C310.561 206.687 310.706 206.543 310.879 206.548L312.446 206.606C312.619 206.613 312.754 206.769 312.748 206.956C312.742 207.139 312.603 207.282 312.435 207.282ZM315.882 207.411C315.878 207.411 315.874 207.411 315.871 207.411L314.304 207.352C314.131 207.346 313.996 207.189 314.001 207.002C314.007 206.816 314.151 206.67 314.326 206.676L315.892 206.735C316.065 206.741 316.201 206.898 316.195 207.084C316.189 207.267 316.05 207.411 315.882 207.411ZM319.328 207.539C319.324 207.539 319.321 207.539 319.317 207.539L317.75 207.481C317.577 207.474 317.442 207.318 317.448 207.131C317.454 206.944 317.597 206.798 317.772 206.805L319.339 206.863C319.512 206.87 319.647 207.026 319.641 207.213C319.636 207.395 319.496 207.539 319.328 207.539ZM321.666 207.626C321.662 207.626 321.659 207.626 321.655 207.626L321.197 207.609C321.024 207.603 320.889 207.446 320.895 207.259C320.901 207.073 321.042 206.929 321.219 206.933L321.677 206.95C321.85 206.957 321.985 207.113 321.979 207.3C321.973 207.483 321.834 207.626 321.666 207.626Z" fill="white" fill-opacity="0.5"/>
</g>
<path fill-rule="evenodd" clip-rule="evenodd" d="M293.23 195.612L298.449 205.85L288.055 207.212L283.51 200.312" fill="white"/>
<path fill-rule="evenodd" clip-rule="evenodd" d="M288.055 207.55C287.955 207.55 287.859 207.497 287.8 207.407L283.255 200.507C283.154 200.355 283.188 200.144 283.329 200.036C283.47 199.928 283.666 199.963 283.766 200.116L288.203 206.851L297.951 205.574L292.956 195.775C292.872 195.611 292.928 195.405 293.079 195.316C293.231 195.225 293.422 195.285 293.505 195.449L298.724 205.687C298.774 205.785 298.775 205.904 298.728 206.004C298.68 206.104 298.59 206.172 298.487 206.185L288.093 207.547C288.081 207.549 288.068 207.55 288.055 207.55Z" fill="#141414"/>
<path fill-rule="evenodd" clip-rule="evenodd" d="M285.062 204.614C285.102 204.442 285.259 204.333 285.421 204.364C285.575 204.394 285.77 204.435 286 204.483C287.408 204.775 290.337 205.383 293.114 205.385H293.121C294.756 205.385 296.195 204.903 297.171 204.026C297.249 203.956 297.352 203.932 297.451 203.959C302.216 205.297 305.658 206.264 308.21 208.099C308.658 208.422 310.275 209.83 309.995 210.825C309.866 211.286 309.406 211.519 308.626 211.519C305.782 211.519 299.655 211.536 294.248 211.552C289.874 211.564 286.096 211.575 284.674 211.575C284.523 211.575 284.388 211.501 284.292 211.368C283.732 210.591 284.644 206.386 285.062 204.614Z" fill="#7BBFF7"/>
<path fill-rule="evenodd" clip-rule="evenodd" d="M284.731 213.064H309.316C309.724 213.064 310.055 212.706 310.055 212.266V212.002C310.055 211.561 309.724 211.204 309.316 211.204H284.731C284.322 211.204 283.991 211.561 283.991 212.002V212.266C283.991 212.706 284.322 213.064 284.731 213.064Z" fill="#141414"/>
<path fill-rule="evenodd" clip-rule="evenodd" d="M302.334 207.145C302.458 207.145 302.578 207.069 302.635 206.939C303.158 205.755 304.163 206.045 304.276 206.082C304.451 206.139 304.637 206.034 304.692 205.845C304.746 205.656 304.65 205.455 304.475 205.396C303.905 205.201 302.661 205.208 302.033 206.63C301.954 206.81 302.024 207.024 302.19 207.11C302.237 207.133 302.285 207.145 302.334 207.145Z" fill="#141414"/>
<path fill-rule="evenodd" clip-rule="evenodd" d="M299.39 206.279C299.514 206.279 299.634 206.203 299.691 206.073C300.214 204.889 301.219 205.179 301.332 205.216C301.507 205.274 301.693 205.168 301.748 204.979C301.802 204.79 301.706 204.59 301.531 204.53C300.961 204.335 299.717 204.342 299.089 205.764C299.01 205.944 299.08 206.158 299.247 206.244C299.293 206.267 299.341 206.279 299.39 206.279Z" fill="#141414"/>
<path fill-rule="evenodd" clip-rule="evenodd" d="M222.824 186.548C217.229 202.925 230.566 218.682 245.315 211.325C251.489 208.246 265.564 187.715 267.926 185.039C267.347 183.805 266.465 182.674 266.016 182.099C265.779 181.795 265.722 181.723 265.692 181.626C265.637 181.449 265.726 181.258 265.89 181.199C266.04 181.144 266.201 181.22 266.27 181.368C266.3 181.413 266.399 181.541 266.496 181.664C267.017 182.331 268.101 183.72 268.694 185.212C268.713 185.26 268.72 185.31 268.718 185.358L277.429 202.56C277.429 202.56 291.853 199.427 295.763 195.784C284.21 168.275 276.188 154.714 264.17 160.63C259.807 162.777 222.824 186.548 222.824 186.548Z" fill="#0B379B"/>
<g style="mix-blend-mode:overlay">
<path fill-rule="evenodd" clip-rule="evenodd" d="M267.875 171.174C267.711 171.091 267.551 171.029 267.398 170.989C267.065 170.903 266.654 170.891 266.172 170.957C266 170.98 265.878 171.149 265.9 171.334C265.921 171.519 266.077 171.651 266.25 171.628C266.654 171.573 266.993 171.579 267.251 171.647C267.363 171.676 267.483 171.723 267.608 171.786C267.651 171.808 267.696 171.818 267.741 171.818C267.859 171.818 267.972 171.746 268.025 171.624C268.099 171.455 268.031 171.253 267.875 171.174ZM269.011 172.459C269.132 172.326 269.331 172.324 269.454 172.455C269.793 172.814 270.155 173.245 270.532 173.735C270.642 173.878 270.624 174.092 270.49 174.211C270.432 174.263 270.361 174.288 270.29 174.288C270.2 174.288 270.111 174.247 270.049 174.166C269.686 173.694 269.338 173.281 269.014 172.937C268.891 172.806 268.889 172.592 269.011 172.459ZM261.06 172.899C260.604 173.135 260.129 173.392 259.647 173.663C259.494 173.749 259.434 173.954 259.514 174.119C259.57 174.235 259.679 174.301 259.793 174.301C259.842 174.301 259.891 174.289 259.937 174.262C260.413 173.995 260.882 173.741 261.332 173.508C261.488 173.427 261.553 173.225 261.479 173.057C261.403 172.888 261.216 172.818 261.06 172.899ZM246.685 183.28C246.273 183.617 245.857 183.96 245.438 184.31C245.3 184.424 245.275 184.636 245.381 184.784C245.443 184.87 245.536 184.916 245.629 184.916C245.696 184.916 245.764 184.893 245.821 184.845C246.239 184.497 246.654 184.154 247.064 183.818C247.202 183.705 247.229 183.493 247.124 183.344C247.019 183.196 246.822 183.167 246.685 183.28ZM250.975 179.851C251.416 179.507 251.842 179.177 252.251 178.862C252.391 178.754 252.587 178.789 252.688 178.941C252.788 179.093 252.756 179.304 252.615 179.413C252.207 179.727 251.782 180.055 251.342 180.398C251.287 180.442 251.223 180.463 251.159 180.463C251.062 180.463 250.966 180.414 250.905 180.323C250.803 180.171 250.835 179.96 250.975 179.851ZM255.079 176.72C254.687 177.012 254.255 177.336 253.789 177.688C253.648 177.796 253.613 178.006 253.713 178.159C253.774 178.253 253.871 178.303 253.97 178.303C254.032 178.303 254.095 178.283 254.149 178.242C254.614 177.891 255.044 177.568 255.435 177.277C255.578 177.171 255.614 176.96 255.515 176.806C255.417 176.653 255.222 176.614 255.079 176.72ZM257.562 174.904C257.562 174.904 257.714 174.806 257.981 174.642C258.132 174.55 258.323 174.607 258.409 174.769C258.494 174.931 258.442 175.138 258.292 175.23C258.062 175.371 257.919 175.462 257.889 175.481C257.889 175.481 257.889 175.481 257.888 175.482C257.839 175.517 257.521 175.743 256.987 176.132C256.933 176.172 256.872 176.19 256.812 176.19C256.711 176.19 256.613 176.138 256.552 176.042C256.455 175.887 256.493 175.677 256.636 175.572C257.148 175.199 257.462 174.975 257.534 174.923L257.534 174.923V174.923L257.543 174.917L257.543 174.917C257.549 174.913 257.556 174.908 257.562 174.904ZM249.452 181.048C249.04 181.375 248.619 181.712 248.19 182.057C248.051 182.168 248.023 182.38 248.126 182.53C248.188 182.619 248.282 182.666 248.378 182.666C248.443 182.666 248.509 182.644 248.565 182.599C248.993 182.255 249.413 181.919 249.824 181.593C249.963 181.482 249.993 181.271 249.891 181.12C249.788 180.97 249.592 180.937 249.452 181.048ZM233.774 190.06C234.194 190.142 234.621 190.19 235.045 190.2C235.218 190.204 235.355 190.358 235.352 190.545C235.348 190.729 235.209 190.876 235.038 190.876C235.037 190.876 235.036 190.876 235.035 190.876C235.034 190.876 235.033 190.876 235.032 190.876C234.493 190.864 233.951 190.797 233.42 190.677C233.315 190.654 233.234 190.576 233.195 190.477C233.194 190.477 233.193 190.476 233.191 190.475L233.189 190.474C233.187 190.473 233.185 190.472 233.183 190.472C233.177 190.469 233.171 190.467 233.166 190.462C233.021 190.36 232.981 190.15 233.076 189.994C235.156 186.587 232.45 182.256 232.422 182.213C232.324 182.059 232.36 181.849 232.503 181.743C232.646 181.637 232.841 181.676 232.939 181.83C232.969 181.878 233.691 183.023 234.142 184.64C234.709 186.675 234.581 188.54 233.774 190.06ZM243.951 185.56C243.543 185.907 243.132 186.259 242.721 186.615C242.586 186.732 242.564 186.944 242.673 187.09C242.734 187.173 242.825 187.217 242.917 187.217C242.986 187.217 243.055 187.192 243.113 187.142C243.523 186.788 243.932 186.437 244.339 186.091C244.475 185.976 244.498 185.763 244.391 185.617C244.284 185.47 244.087 185.444 243.951 185.56ZM227.559 186.186C227.697 186.073 227.893 186.103 227.998 186.252C228.001 186.257 228.369 186.779 229.038 187.434C229.166 187.56 229.176 187.774 229.06 187.912C228.998 187.986 228.913 188.023 228.827 188.023C228.752 188.023 228.677 187.994 228.617 187.935C227.9 187.233 227.513 186.682 227.497 186.659C227.393 186.51 227.421 186.298 227.559 186.186ZM241.254 187.853C240.825 188.183 240.39 188.483 239.962 188.743C239.811 188.835 239.758 189.041 239.843 189.204C239.9 189.314 240.007 189.376 240.116 189.376C240.168 189.376 240.221 189.362 240.27 189.332C240.718 189.06 241.171 188.748 241.618 188.403C241.759 188.295 241.792 188.084 241.691 187.932C241.59 187.779 241.394 187.744 241.254 187.853ZM236.847 190.026C237.329 189.923 237.82 189.773 238.305 189.579C238.467 189.514 238.648 189.603 238.708 189.779C238.768 189.953 238.685 190.148 238.523 190.213C238.007 190.419 237.484 190.58 236.969 190.69C236.948 190.694 236.928 190.696 236.908 190.696C236.761 190.696 236.63 190.585 236.6 190.424C236.567 190.24 236.677 190.063 236.847 190.026ZM231.824 189.413C231.372 189.198 230.922 188.936 230.488 188.636C230.343 188.535 230.149 188.581 230.055 188.738C229.962 188.895 230.004 189.104 230.15 189.205C230.611 189.524 231.089 189.802 231.571 190.032C231.612 190.051 231.655 190.061 231.698 190.061C231.818 190.061 231.933 189.985 231.984 189.859C232.054 189.688 231.983 189.489 231.824 189.413ZM279.854 191.442C280.009 191.359 280.197 191.427 280.274 191.595C280.514 192.116 280.746 192.625 280.969 193.118C281.046 193.285 280.981 193.488 280.825 193.57C280.781 193.593 280.734 193.604 280.688 193.604C280.572 193.604 280.46 193.534 280.406 193.414C280.184 192.923 279.952 192.415 279.712 191.895C279.635 191.728 279.699 191.525 279.854 191.442ZM278.71 188.262C278.63 188.097 278.441 188.031 278.288 188.117C278.134 188.203 278.073 188.407 278.153 188.573C278.396 189.08 278.634 189.584 278.868 190.079C278.923 190.197 279.033 190.265 279.147 190.265C279.195 190.265 279.243 190.253 279.289 190.228C279.443 190.144 279.505 189.94 279.427 189.773C279.193 189.276 278.954 188.772 278.71 188.262ZM281.375 194.793C281.531 194.712 281.718 194.783 281.793 194.951C282.036 195.496 282.262 196.009 282.47 196.485C282.544 196.654 282.477 196.855 282.321 196.935C282.278 196.957 282.232 196.968 282.187 196.968C282.07 196.968 281.957 196.896 281.903 196.774C281.696 196.3 281.47 195.787 281.228 195.244C281.153 195.075 281.219 194.873 281.375 194.793ZM277.093 184.959C277.01 184.795 276.82 184.733 276.668 184.823C276.516 184.912 276.459 185.117 276.541 185.281C276.791 185.778 277.037 186.276 277.281 186.773C277.337 186.887 277.446 186.953 277.559 186.953C277.608 186.953 277.658 186.94 277.705 186.914C277.858 186.826 277.916 186.622 277.835 186.456C277.591 185.958 277.343 185.458 277.093 184.959ZM283.271 198.332C283.602 199.103 283.829 199.643 283.93 199.884C284.001 200.054 283.931 200.254 283.774 200.331C283.732 200.351 283.688 200.361 283.645 200.361C283.525 200.361 283.411 200.287 283.359 200.162C283.258 199.922 283.032 199.384 282.702 198.616C282.63 198.447 282.698 198.246 282.855 198.167C283.012 198.089 283.199 198.163 283.271 198.332ZM275.408 181.695C275.321 181.533 275.129 181.477 274.98 181.57C274.829 181.663 274.778 181.87 274.864 182.031C275.122 182.516 275.38 183.008 275.636 183.503C275.693 183.614 275.8 183.676 275.91 183.676C275.962 183.676 276.014 183.662 276.062 183.633C276.214 183.542 276.268 183.336 276.183 183.173C275.926 182.676 275.667 182.182 275.408 181.695ZM273.194 178.377C273.341 178.277 273.534 178.325 273.626 178.484C273.892 178.941 274.169 179.429 274.45 179.935C274.539 180.095 274.491 180.302 274.343 180.399C274.292 180.431 274.237 180.447 274.182 180.447C274.075 180.447 273.972 180.388 273.913 180.283C273.634 179.781 273.359 179.297 273.095 178.843C273.003 178.684 273.048 178.476 273.194 178.377ZM264.285 171.453C263.826 171.617 263.325 171.82 262.794 172.058C262.634 172.129 262.558 172.327 262.624 172.5C262.675 172.63 262.791 172.708 262.914 172.708C262.954 172.708 262.995 172.7 263.034 172.682C263.551 172.451 264.038 172.254 264.482 172.095C264.646 172.036 264.735 171.845 264.681 171.668C264.626 171.49 264.45 171.394 264.285 171.453ZM271.257 175.288C271.397 175.179 271.593 175.213 271.694 175.364C271.985 175.797 272.288 176.269 272.597 176.767C272.694 176.922 272.655 177.132 272.511 177.236C272.458 177.274 272.397 177.293 272.337 177.293C272.236 177.293 272.137 177.24 272.076 177.143C271.771 176.652 271.472 176.187 271.186 175.76C271.085 175.609 271.116 175.397 271.257 175.288Z" fill="white" fill-opacity="0.8"/>
</g>
<path fill-rule="evenodd" clip-rule="evenodd" d="M237.123 124.637C235.6 125.255 233.25 129.946 233.25 129.946L229.191 129.322C229.191 129.322 227.317 134.194 229.878 136.754C232.438 139.315 231.991 138.525 232.32 139.079C232.649 139.633 234.106 143.402 240.566 143.645C247.026 143.887 248.34 137.798 248.444 137.157C248.548 136.516 248.687 131.996 248.462 131.06C248.236 130.125 248.184 127.293 247.388 126.401C245.653 124.46 239.536 123.659 237.123 124.637Z" fill="white"/>
<path fill-rule="evenodd" clip-rule="evenodd" d="M232.967 139.543C235.564 144.017 243.652 145.012 246.8 140.367C248.671 137.84 248.522 132.3 247.174 128.195C243.657 129.502 239.353 129.448 235.949 128.648C235.678 130.671 232.622 133.036 232.173 132.568C231.947 132.333 231.833 132.137 231.73 131.96C231.57 131.685 231.437 131.458 230.955 131.204C229.838 130.692 228.753 131.579 228.847 132.811C228.892 133.821 229.268 135.516 231.269 135.516C231.428 135.516 231.561 135.633 231.581 135.79C231.746 137.127 232.234 138.42 232.967 139.543ZM234.186 119.471C239.28 117.521 253.315 121.599 248.782 127.119C249.485 128.483 250.439 131.064 248.744 132.769C249.245 138.032 247.834 142.649 242.719 143.749C238.649 144.66 234.289 143.186 232.231 139.543C227.399 139.224 224.177 127.542 230.216 124.92C229.545 122.883 231.102 120.609 234.186 119.471ZM230.113 132.275C229.65 132.259 229.65 133.549 230.113 133.533C230.576 133.549 230.576 132.259 230.113 132.275Z" fill="#141414"/>
<path fill-rule="evenodd" clip-rule="evenodd" d="M246.151 130.468C245.972 130.247 245.74 130.049 245.468 129.91C245.198 129.767 244.894 129.694 244.6 129.66C244.306 129.627 244.017 129.63 243.738 129.657C243.459 129.684 243.189 129.728 242.922 129.775C242.894 129.78 242.864 129.788 242.837 129.798C242.582 129.892 242.452 130.175 242.546 130.43C242.64 130.684 242.923 130.815 243.177 130.721C243.407 130.636 243.639 130.564 243.869 130.512C244.098 130.46 244.326 130.422 244.545 130.426C244.986 130.435 245.361 130.604 245.732 130.89L245.736 130.893C245.843 130.975 245.996 130.977 246.105 130.888C246.234 130.785 246.254 130.597 246.151 130.468ZM237.979 130.066C238.179 130.06 238.373 130.055 238.561 130.038C238.82 130.014 239.049 130.205 239.072 130.464C239.096 130.723 238.905 130.952 238.646 130.975C238.636 130.976 238.625 130.977 238.614 130.977L238.607 130.977C238.303 130.983 238.01 130.964 237.731 130.946C237.502 130.932 237.281 130.917 237.071 130.918C236.839 130.918 236.618 130.941 236.405 130.998C236.193 131.056 235.989 131.141 235.768 131.235L235.757 131.24C235.622 131.298 235.465 131.235 235.408 131.1C235.366 131 235.389 130.89 235.457 130.815C235.65 130.606 235.901 130.441 236.174 130.332C236.447 130.219 236.737 130.155 237.016 130.12C237.255 130.09 237.487 130.082 237.709 130.075H237.709C237.747 130.073 237.784 130.072 237.822 130.071C237.874 130.069 237.927 130.068 237.979 130.066H237.979ZM244.178 133.146C244.114 132.704 244.386 132.298 244.786 132.24C245.186 132.182 245.562 132.494 245.626 132.936C245.69 133.379 245.418 133.784 245.018 133.842C244.618 133.9 244.242 133.588 244.178 133.146ZM241.448 137.304C241.377 137.288 241.325 137.273 241.235 137.234C241.123 137.187 241.072 137.058 241.119 136.947C241.147 136.881 241.203 136.836 241.267 136.82L241.353 136.799C241.387 136.791 241.462 136.794 241.519 136.797L241.535 136.798C241.59 136.801 241.629 136.804 241.686 136.804C241.801 136.805 241.914 136.797 242.021 136.778C242.234 136.74 242.418 136.652 242.504 136.535C242.549 136.476 242.576 136.407 242.586 136.323C242.598 136.241 242.592 136.135 242.57 136.062C242.531 135.916 242.412 135.793 242.23 135.671C242.141 135.612 242.041 135.556 241.934 135.507L241.894 135.488L241.87 135.476C241.845 135.465 241.814 135.445 241.8 135.432C241.785 135.419 241.77 135.405 241.757 135.391L241.731 135.358C241.685 135.289 241.672 135.249 241.659 135.211C241.657 135.203 241.654 135.196 241.651 135.188C241.625 135.102 241.612 135.031 241.601 134.96C241.558 134.682 241.544 134.424 241.531 134.161C241.506 133.64 241.505 133.125 241.517 132.606C241.52 132.483 241.621 132.387 241.743 132.39C241.858 132.392 241.951 132.483 241.959 132.596L241.959 132.599C241.99 133.107 242.025 133.619 242.073 134.122C242.098 134.372 242.127 134.626 242.175 134.854C242.184 134.894 242.194 134.932 242.204 134.965C242.324 135.014 242.444 135.071 242.563 135.142C242.69 135.22 242.819 135.314 242.931 135.444C243.044 135.57 243.133 135.74 243.171 135.914C243.21 136.09 243.21 136.247 243.183 136.418C243.156 136.587 243.083 136.764 242.964 136.905C242.848 137.047 242.698 137.147 242.548 137.211C242.397 137.275 242.245 137.307 242.098 137.324C241.95 137.341 241.805 137.342 241.664 137.332C241.598 137.327 241.511 137.319 241.448 137.304ZM243.399 139.281L243.396 139.282C242.792 139.582 242.089 139.65 241.428 139.564C241.101 139.527 240.783 139.443 240.495 139.302C240.351 139.234 240.213 139.152 240.087 139.059C240.024 139.013 239.964 138.964 239.907 138.913C239.899 138.905 239.891 138.898 239.884 138.891C239.864 138.872 239.844 138.854 239.826 138.835C239.802 138.812 239.773 138.777 239.766 138.768C239.758 138.758 239.75 138.747 239.742 138.738C239.596 138.577 239.348 138.565 239.187 138.71C239.026 138.855 239.014 139.103 239.159 139.264L239.163 139.268C239.216 139.327 239.249 139.358 239.291 139.396C239.324 139.426 239.357 139.453 239.39 139.48C239.397 139.486 239.405 139.493 239.413 139.499C239.495 139.564 239.58 139.624 239.666 139.679C239.839 139.79 240.021 139.882 240.209 139.957C240.584 140.111 240.982 140.189 241.376 140.209C241.769 140.229 242.154 140.183 242.533 140.095C242.911 140.004 243.277 139.856 243.605 139.647C243.694 139.59 243.728 139.473 243.68 139.376C243.629 139.272 243.503 139.229 243.399 139.281ZM236.445 133.207C236.509 132.765 236.885 132.453 237.285 132.511C237.685 132.569 237.957 132.974 237.893 133.416C237.829 133.859 237.453 134.171 237.053 134.113C236.653 134.055 236.381 133.649 236.445 133.207Z" fill="#141414"/>
</svg>
