<svg width="338" height="222" viewBox="0 0 338 222" fill="none" xmlns="http://www.w3.org/2000/svg">
<path fill-rule="evenodd" clip-rule="evenodd" d="M95.4564 30.9515H168.251V0.299011H95.4564V30.9515Z" fill="white"/>
<path fill-rule="evenodd" clip-rule="evenodd" d="M95.4561 0H168.251C168.41 0 168.539 0.133844 168.539 0.298947V30.9514C168.539 31.1166 168.41 31.2504 168.251 31.2504H95.4561C95.2969 31.2504 95.1678 31.1166 95.1678 30.9514V0.298947C95.1678 0.133844 95.2969 0 95.4561 0ZM167.962 30.6524V0.597746H95.7446V30.6524H167.962Z" fill="#313131"/>
<path fill-rule="evenodd" clip-rule="evenodd" d="M101.642 24.3605H119.225V6.27405H101.642V24.3605Z" fill="#D45F4F"/>
<path fill-rule="evenodd" clip-rule="evenodd" d="M156.278 8.32379C156.915 8.32379 157.431 8.85916 157.431 9.51958C157.431 10.1675 156.934 10.6951 156.314 10.7148L156.278 10.7154H123.801C123.164 10.7154 122.647 10.18 122.647 9.51958C122.647 8.87162 123.144 8.34403 123.765 8.32435L123.801 8.32379H156.278ZM148.592 14.3474C149.229 14.3474 149.745 14.8828 149.745 15.5432C149.745 16.1911 149.248 16.7188 148.628 16.7385L148.592 16.739H123.801C123.164 16.739 122.647 16.2036 122.647 15.5432C122.647 14.8952 123.144 14.3676 123.765 14.348L123.801 14.3474H148.592ZM142.214 21.5668C142.214 20.9063 141.698 20.3711 141.061 20.3711H123.801L123.765 20.3716C123.144 20.3912 122.647 20.9189 122.647 21.5668C122.647 22.2272 123.164 22.7626 123.801 22.7626H141.061L141.097 22.7621C141.717 22.7423 142.214 22.2148 142.214 21.5668Z" fill="#D3E2F2"/>
<path fill-rule="evenodd" clip-rule="evenodd" d="M95.4564 69.4449H168.251V38.7925H95.4564V69.4449Z" fill="white"/>
<path fill-rule="evenodd" clip-rule="evenodd" d="M95.4561 38.4936H168.251C168.41 38.4936 168.539 38.6274 168.539 38.7926V69.445C168.539 69.6102 168.41 69.744 168.251 69.744H95.4561C95.2969 69.744 95.1678 69.6102 95.1678 69.445V38.7926C95.1678 38.6274 95.2969 38.4936 95.4561 38.4936ZM167.962 69.146V39.0913H95.7446V69.146H167.962Z" fill="#313131"/>
<path fill-rule="evenodd" clip-rule="evenodd" d="M101.642 62.8541H119.225V44.7676H101.642V62.8541Z" fill="#32923B"/>
<path fill-rule="evenodd" clip-rule="evenodd" d="M156.278 46.8173C156.915 46.8173 157.431 47.3528 157.431 48.0131C157.431 48.661 156.934 49.1887 156.314 49.2084L156.278 49.2089H123.801C123.164 49.2089 122.647 48.6736 122.647 48.0131C122.647 47.3652 123.144 46.8376 123.765 46.818L123.801 46.8173H156.278ZM148.592 52.841C149.229 52.841 149.745 53.3764 149.745 54.0368C149.745 54.6847 149.248 55.2124 148.628 55.232L148.592 55.2325H123.801C123.164 55.2325 122.647 54.6973 122.647 54.0368C122.647 53.3888 123.144 52.8613 123.765 52.8415L123.801 52.841H148.592ZM142.214 60.0604C142.214 59.3999 141.698 58.8646 141.061 58.8646H123.801L123.765 58.8651C123.144 58.8848 122.647 59.4125 122.647 60.0604C122.647 60.7207 123.164 61.2562 123.801 61.2562H141.061L141.097 61.2557C141.717 61.2359 142.214 60.7084 142.214 60.0604Z" fill="#D3E2F2"/>
<g opacity="0.553153">
<path fill-rule="evenodd" clip-rule="evenodd" d="M95.4564 107.938H168.251V77.2861H95.4564V107.938Z" fill="white"/>
<path fill-rule="evenodd" clip-rule="evenodd" d="M95.4561 76.9869H168.251C168.41 76.9869 168.539 77.1208 168.539 77.286V107.938C168.539 108.104 168.41 108.237 168.251 108.237H95.4561C95.2969 108.237 95.1678 108.104 95.1678 107.938V77.286C95.1678 77.1208 95.2969 76.9869 95.4561 76.9869ZM167.962 107.639V77.5847H95.7446V107.639H167.962Z" fill="#313131"/>
<path fill-rule="evenodd" clip-rule="evenodd" d="M101.642 101.348H119.225V83.2611H101.642V101.348Z" fill="#DB5757"/>
<path fill-rule="evenodd" clip-rule="evenodd" d="M156.278 85.3109C156.915 85.3109 157.431 85.8464 157.431 86.5067C157.431 87.1546 156.934 87.6823 156.314 87.702L156.278 87.7025H123.801C123.164 87.7025 122.647 87.1672 122.647 86.5067C122.647 85.8587 123.144 85.3312 123.765 85.3116L123.801 85.3109H156.278ZM148.592 91.3346C149.229 91.3346 149.745 91.87 149.745 92.5303C149.745 93.1783 149.248 93.706 148.628 93.7256L148.592 93.7261H123.801C123.164 93.7261 122.647 93.1908 122.647 92.5303C122.647 91.8824 123.144 91.3549 123.765 91.3351L123.801 91.3346H148.592ZM142.214 98.554C142.214 97.8935 141.698 97.3582 141.061 97.3582H123.801L123.765 97.3587C123.144 97.3784 122.647 97.9061 122.647 98.554C122.647 99.2143 123.164 99.7498 123.801 99.7498H141.061L141.097 99.7493C141.717 99.7295 142.214 99.2019 142.214 98.554Z" fill="#D3E2F2"/>
</g>
<g opacity="0.162202">
<path fill-rule="evenodd" clip-rule="evenodd" d="M95.4564 146.432H168.251V115.78H95.4564V146.432Z" fill="white"/>
<path fill-rule="evenodd" clip-rule="evenodd" d="M95.4561 115.48H168.251C168.41 115.48 168.539 115.614 168.539 115.779V146.432C168.539 146.597 168.41 146.731 168.251 146.731H95.4561C95.2969 146.731 95.1678 146.597 95.1678 146.432V115.779C95.1678 115.614 95.2969 115.48 95.4561 115.48ZM167.962 146.133V116.078H95.7446V146.133H167.962Z" fill="#313131"/>
<path fill-rule="evenodd" clip-rule="evenodd" d="M101.642 139.841H119.225V121.755H101.642V139.841Z" fill="#FFC81A"/>
<path fill-rule="evenodd" clip-rule="evenodd" d="M156.278 123.804C156.915 123.804 157.431 124.34 157.431 125C157.431 125.648 156.934 126.176 156.314 126.195L156.278 126.196H123.801C123.164 126.196 122.647 125.661 122.647 125C122.647 124.352 123.144 123.825 123.765 123.805L123.801 123.804H156.278ZM148.592 129.828C149.229 129.828 149.745 130.363 149.745 131.024C149.745 131.672 149.248 132.199 148.628 132.219L148.592 132.22H123.801C123.164 132.22 122.647 131.684 122.647 131.024C122.647 130.376 123.144 129.848 123.765 129.828L123.801 129.828H148.592ZM142.214 137.047C142.214 136.387 141.698 135.852 141.061 135.852H123.801L123.765 135.852C123.144 135.872 122.647 136.399 122.647 137.047C122.647 137.708 123.164 138.243 123.801 138.243H141.061L141.097 138.243C141.717 138.223 142.214 137.695 142.214 137.047Z" fill="#D3E2F2"/>
</g>
<path fill-rule="evenodd" clip-rule="evenodd" d="M185.12 30.9515H257.914V0.299011H185.12V30.9515Z" fill="white"/>
<path fill-rule="evenodd" clip-rule="evenodd" d="M185.12 0H257.914C258.073 0 258.203 0.133844 258.203 0.298947V30.9514C258.203 31.1166 258.073 31.2504 257.914 31.2504H185.12C184.961 31.2504 184.832 31.1166 184.832 30.9514V0.298947C184.832 0.133844 184.961 0 185.12 0ZM257.627 30.6524V0.597746H185.408V30.6524H257.627Z" fill="#313131"/>
<path fill-rule="evenodd" clip-rule="evenodd" d="M191.306 24.3605H208.889V6.27405H191.306V24.3605Z" fill="#FFC81A"/>
<path fill-rule="evenodd" clip-rule="evenodd" d="M245.941 8.32379C246.578 8.32379 247.095 8.85916 247.095 9.51958C247.095 10.1675 246.597 10.6951 245.977 10.7148L245.941 10.7154H213.464C212.827 10.7154 212.311 10.18 212.311 9.51958C212.311 8.87162 212.808 8.34403 213.429 8.32435L213.464 8.32379H245.941ZM238.256 14.3474C238.893 14.3474 239.408 14.8828 239.408 15.5432C239.408 16.1911 238.912 16.7188 238.291 16.7385L238.256 16.739H213.464C212.827 16.739 212.311 16.2036 212.311 15.5432C212.311 14.8952 212.808 14.3676 213.429 14.348L213.464 14.3474H238.256ZM231.878 21.5668C231.878 20.9063 231.361 20.3711 230.724 20.3711H213.464L213.429 20.3716C212.808 20.3912 212.311 20.9189 212.311 21.5668C212.311 22.2272 212.827 22.7626 213.464 22.7626H230.724L230.76 22.7621C231.381 22.7423 231.878 22.2148 231.878 21.5668Z" fill="#D3E2F2"/>
<path fill-rule="evenodd" clip-rule="evenodd" d="M185.12 69.4449H257.914V38.7925H185.12V69.4449Z" fill="white"/>
<path fill-rule="evenodd" clip-rule="evenodd" d="M185.12 38.4936H257.914C258.073 38.4936 258.203 38.6274 258.203 38.7926V69.445C258.203 69.6102 258.073 69.744 257.914 69.744H185.12C184.961 69.744 184.832 69.6102 184.832 69.445V38.7926C184.832 38.6274 184.961 38.4936 185.12 38.4936ZM257.627 69.146V39.0913H185.408V69.146H257.627Z" fill="#313131"/>
<path fill-rule="evenodd" clip-rule="evenodd" d="M191.306 62.8541H208.889V44.7676H191.306V62.8541Z" fill="#FFC81A"/>
<path fill-rule="evenodd" clip-rule="evenodd" d="M245.941 46.8173C246.578 46.8173 247.095 47.3528 247.095 48.0131C247.095 48.661 246.597 49.1887 245.977 49.2084L245.941 49.2089H213.464C212.827 49.2089 212.311 48.6736 212.311 48.0131C212.311 47.3652 212.808 46.8376 213.429 46.818L213.464 46.8173H245.941ZM238.256 52.841C238.893 52.841 239.408 53.3764 239.408 54.0368C239.408 54.6847 238.912 55.2124 238.291 55.232L238.256 55.2325H213.464C212.827 55.2325 212.311 54.6973 212.311 54.0368C212.311 53.3888 212.808 52.8613 213.429 52.8415L213.464 52.841H238.256ZM231.878 60.0604C231.878 59.3999 231.361 58.8646 230.724 58.8646H213.464L213.429 58.8651C212.808 58.8848 212.311 59.4125 212.311 60.0604C212.311 60.7207 212.827 61.2562 213.464 61.2562H230.724L230.76 61.2557C231.381 61.2359 231.878 60.7084 231.878 60.0604Z" fill="#D3E2F2"/>
<g opacity="0.553153">
<path fill-rule="evenodd" clip-rule="evenodd" d="M185.12 107.938H257.914V77.2861H185.12V107.938Z" fill="white"/>
<path fill-rule="evenodd" clip-rule="evenodd" d="M185.12 76.9869H257.914C258.073 76.9869 258.203 77.1208 258.203 77.286V107.938C258.203 108.104 258.073 108.237 257.914 108.237H185.12C184.961 108.237 184.832 108.104 184.832 107.938V77.286C184.832 77.1208 184.961 76.9869 185.12 76.9869ZM257.627 107.639V77.5847H185.408V107.639H257.627Z" fill="#313131"/>
<path fill-rule="evenodd" clip-rule="evenodd" d="M191.306 101.348H208.889V83.2611H191.306V101.348Z" fill="#FFC81A"/>
<path fill-rule="evenodd" clip-rule="evenodd" d="M245.941 85.3109C246.578 85.3109 247.095 85.8464 247.095 86.5067C247.095 87.1546 246.597 87.6823 245.977 87.702L245.941 87.7025H213.464C212.827 87.7025 212.311 87.1672 212.311 86.5067C212.311 85.8587 212.808 85.3312 213.429 85.3116L213.464 85.3109H245.941ZM238.256 91.3346C238.893 91.3346 239.408 91.87 239.408 92.5303C239.408 93.1783 238.912 93.706 238.291 93.7256L238.256 93.7261H213.464C212.827 93.7261 212.311 93.1908 212.311 92.5303C212.311 91.8824 212.808 91.3549 213.429 91.3351L213.464 91.3346H238.256ZM231.878 98.554C231.878 97.8935 231.361 97.3582 230.724 97.3582H213.464L213.429 97.3587C212.808 97.3784 212.311 97.9061 212.311 98.554C212.311 99.2143 212.827 99.7498 213.464 99.7498H230.724L230.76 99.7493C231.381 99.7295 231.878 99.2019 231.878 98.554Z" fill="#D3E2F2"/>
</g>
<g opacity="0.162202">
<path fill-rule="evenodd" clip-rule="evenodd" d="M185.12 146.432H257.914V115.78H185.12V146.432Z" fill="white"/>
<path fill-rule="evenodd" clip-rule="evenodd" d="M185.12 115.48H257.914C258.073 115.48 258.203 115.614 258.203 115.779V146.432C258.203 146.597 258.073 146.731 257.914 146.731H185.12C184.961 146.731 184.832 146.597 184.832 146.432V115.779C184.832 115.614 184.961 115.48 185.12 115.48ZM257.627 146.133V116.078H185.408V146.133H257.627Z" fill="#313131"/>
<path fill-rule="evenodd" clip-rule="evenodd" d="M191.306 139.841H208.889V121.755H191.306V139.841Z" fill="#FFC81A"/>
<path fill-rule="evenodd" clip-rule="evenodd" d="M245.941 123.804C246.578 123.804 247.095 124.34 247.095 125C247.095 125.648 246.597 126.176 245.977 126.195L245.941 126.196H213.464C212.827 126.196 212.311 125.661 212.311 125C212.311 124.352 212.808 123.825 213.429 123.805L213.464 123.804H245.941ZM238.256 129.828C238.893 129.828 239.408 130.363 239.408 131.024C239.408 131.672 238.912 132.199 238.291 132.219L238.256 132.22H213.464C212.827 132.22 212.311 131.684 212.311 131.024C212.311 130.376 212.808 129.848 213.429 129.828L213.464 129.828H238.256ZM231.878 137.047C231.878 136.387 231.361 135.852 230.724 135.852H213.464L213.429 135.852C212.808 135.872 212.311 136.399 212.311 137.047C212.311 137.708 212.827 138.243 213.464 138.243H230.724L230.76 138.243C231.381 138.223 231.878 137.695 231.878 137.047Z" fill="#D3E2F2"/>
</g>
<path fill-rule="evenodd" clip-rule="evenodd" d="M24.1028 200.638C24.1028 200.638 21.7945 196.008 26.4219 188.706C36.2198 173.246 20.3746 180.703 16.8694 170.144C14.0113 161.536 18.7697 152.838 13.9915 150.533C6.17005 146.761 -1.9833 141.201 3.25374 134.909C6.92836 130.494 19.5866 130.892 24.55 144.478C27.6558 152.979 39.8944 147.308 50.753 160.776C53.9869 164.787 61.0887 181.762 57.3621 200.638H24.1028Z" fill="#313131"/>
<path fill-rule="evenodd" clip-rule="evenodd" d="M37.078 200.638C37.078 200.638 31.7918 193.855 34.3557 186.415C36.4237 180.414 41.9728 178.772 42.1588 173.718C42.3932 167.344 36.2172 168.22 35.24 160.35C34.4808 154.234 38.0933 148.609 37.8556 145.357C37.4958 140.436 29.3733 137.882 26.5843 130.481C23.0482 121.098 34.057 118.955 38.9606 122.128C45.1156 126.111 45.3237 132.054 48.0219 135.631C51.0863 139.693 60.6785 140.605 62.0557 150.62C62.929 156.972 59.3468 162.492 61.0351 167.869C62.2893 171.864 69.7765 173.628 71.3523 182.455C73.0484 191.956 66.2077 200.638 66.2077 200.638H37.078Z" fill="#FFB500"/>
<path fill-rule="evenodd" clip-rule="evenodd" d="M52.4066 200.639H53.0526C53.2844 199.088 55.3167 184.433 52.3141 166.977C49.7282 151.945 41.8914 137.891 35.4197 129.752C35.3077 129.611 35.1068 129.591 34.9706 129.707C34.8345 129.823 34.815 130.031 34.927 130.172C38.4711 134.63 41.9808 140.331 44.8095 146.226C48.1615 153.212 50.5392 160.427 51.6858 167.093C54.7671 185.005 52.5154 199.942 52.4066 200.639Z" fill="#313131"/>
<path fill-rule="evenodd" clip-rule="evenodd" d="M266.769 206.18C266.769 206.18 250.291 195.954 253.647 177.452C255.65 166.407 262.444 166.949 266.376 158.587C268.885 153.251 265.072 138.929 272.899 129.507C280.21 120.706 292.165 121.504 296.016 119.592C301.177 117.029 303.143 111.646 304.618 107.225C310.119 90.7417 322.828 91.1868 324.897 99.3874C327.391 109.274 325.003 115.233 313.268 124.922C304.451 132.203 317.36 140.371 309.681 153.627C305.39 161.035 293.851 164.885 299.488 174.463C307.206 187.578 305.756 200.472 301.821 206.18H266.769Z" fill="#D45F4F"/>
<path fill-rule="evenodd" clip-rule="evenodd" d="M314.845 107.811C314.72 107.683 314.519 107.684 314.395 107.814C314.354 107.857 310.192 112.253 304.774 119.854C299.775 126.867 292.648 138.127 287.085 151.942C282.143 164.214 276.668 181.467 278.182 206.18H278.82C277.305 181.581 282.754 164.409 287.672 152.196C298.269 125.881 314.683 108.45 314.848 108.277C314.971 108.148 314.97 107.938 314.845 107.811Z" fill="white"/>
<path fill-rule="evenodd" clip-rule="evenodd" d="M325.745 145.713C324.749 145.713 323.735 146.567 323.735 147.6C323.735 147.772 323.759 147.938 323.801 148.096C315.37 152.388 307.85 157.947 301.429 164.64C295.967 170.334 291.283 176.856 287.508 184.024C284.149 190.402 282.147 196.123 281.058 199.799C280.04 203.236 279.609 205.581 279.506 206.18H280.153C280.282 205.452 280.713 203.213 281.667 199.992C282.747 196.346 284.733 190.671 288.066 184.342C291.812 177.228 296.46 170.756 301.881 165.106C308.25 158.467 315.711 152.951 324.076 148.692C324.404 149.163 324.936 149.472 325.538 149.472C326.534 149.472 327.369 148.813 327.369 147.78C327.369 146.746 326.741 145.713 325.745 145.713Z" fill="#313131"/>
<path fill-rule="evenodd" clip-rule="evenodd" d="M336.372 167.018C335.374 167.018 334.357 167.871 334.357 168.904V168.905C331.267 169.479 326.051 170.677 316.572 174.291C303.955 179.101 295.234 187.5 290.14 193.697C284.62 200.414 282.044 206.078 282.019 206.135C282.012 206.149 282.008 206.164 282.004 206.18H282.708C283.247 205.057 285.797 199.997 290.64 194.108C295.684 187.977 304.314 179.669 316.793 174.911C326.224 171.315 331.404 170.125 334.472 169.555C334.727 170.267 335.388 170.776 336.165 170.776C337.163 170.776 338 170.118 338 169.084C338 168.05 337.37 167.018 336.372 167.018Z" fill="#313131"/>
<path fill-rule="evenodd" clip-rule="evenodd" d="M0 200.963C0 200.782 0.142856 200.633 0.319088 200.633H325.789C325.964 200.633 326.108 200.782 326.108 200.963C326.108 201.145 325.964 201.294 325.789 201.294H0.319088C0.142856 201.294 0 201.145 0 200.963Z" fill="#313131"/>
<path fill-rule="evenodd" clip-rule="evenodd" d="M302.012 176.746L316.356 192.342L308.295 199.885L293.314 188.89" fill="white"/>
<path fill-rule="evenodd" clip-rule="evenodd" d="M308.295 200.236C308.377 200.236 308.458 200.205 308.522 200.145L316.584 192.603C316.652 192.539 316.692 192.45 316.695 192.355C316.699 192.261 316.665 192.168 316.602 192.1L302.258 176.504C302.129 176.363 301.914 176.358 301.778 176.492C301.643 176.626 301.637 176.848 301.767 176.988L315.87 192.323L308.269 199.435L293.51 188.603C293.357 188.491 293.145 188.528 293.037 188.687C292.928 188.845 292.964 189.064 293.117 189.176L308.099 200.171C308.158 200.215 308.226 200.236 308.295 200.236Z" fill="#313131"/>
<path fill-rule="evenodd" clip-rule="evenodd" d="M313.929 188.499C313.77 188.447 313.598 188.532 313.537 188.693C313.478 188.847 313.406 189.042 313.322 189.273C312.803 190.685 311.723 193.624 310.24 196.114C310.238 196.116 310.237 196.118 310.236 196.12C309.361 197.587 308.204 198.628 306.978 199.053C306.88 199.087 306.805 199.167 306.774 199.269C305.298 204.228 304.232 207.811 304.34 211.042C304.359 211.61 304.624 213.783 305.573 214.044C306.012 214.164 306.446 213.871 306.863 213.173C308.384 210.623 311.677 205.138 314.582 200.299C316.933 196.384 318.963 193.002 319.724 191.727C319.805 191.592 319.818 191.433 319.763 191.278C319.439 190.377 315.575 189.034 313.929 188.499Z" fill="#E4A1A1"/>
<path fill-rule="evenodd" clip-rule="evenodd" d="M320.889 192.543L307.733 214.584C307.515 214.95 307.051 215.064 306.697 214.837L306.485 214.702C306.132 214.475 306.022 213.995 306.241 213.629L319.396 191.588C319.615 191.222 320.079 191.108 320.433 191.335L320.644 191.47C320.998 191.697 321.108 192.177 320.889 192.543Z" fill="#313131"/>
<path fill-rule="evenodd" clip-rule="evenodd" d="M306.718 205.283C306.652 205.395 306.527 205.464 306.393 205.448C305.162 205.308 304.857 206.358 304.826 206.479C304.778 206.665 304.594 206.778 304.413 206.73C304.232 206.682 304.123 206.492 304.169 206.305C304.317 205.694 304.989 204.582 306.467 204.75C306.653 204.771 306.787 204.944 306.767 205.137C306.761 205.191 306.744 205.24 306.718 205.283Z" fill="#313131"/>
<path fill-rule="evenodd" clip-rule="evenodd" d="M307.598 202.199C307.532 202.311 307.407 202.379 307.273 202.364C306.042 202.224 305.737 203.274 305.706 203.394C305.658 203.581 305.474 203.694 305.293 203.646C305.112 203.597 305.003 203.408 305.049 203.221C305.197 202.609 305.869 201.498 307.347 201.665C307.533 201.686 307.667 201.86 307.647 202.053C307.641 202.107 307.624 202.156 307.598 202.199Z" fill="#313131"/>
<path fill-rule="evenodd" clip-rule="evenodd" d="M246.784 200.451L243.781 214.419L231.889 215.702L233.486 197.761L246.784 200.451Z" fill="white"/>
<path fill-rule="evenodd" clip-rule="evenodd" d="M231.678 216.169C231.689 216.169 231.7 216.169 231.711 216.167L243.839 214.87C243.994 214.854 244.119 214.73 244.142 214.571L247.04 200.392C247.067 200.2 246.939 200.022 246.754 199.994C246.568 199.967 246.396 200.099 246.369 200.291L243.509 214.197L232.111 215.421L233.712 198.771C233.753 198.582 233.638 198.394 233.455 198.352C233.272 198.309 233.091 198.429 233.05 198.618L231.346 215.741C231.323 215.851 231.351 215.966 231.423 216.051C231.488 216.126 231.581 216.169 231.678 216.169Z" fill="#313131"/>
<path fill-rule="evenodd" clip-rule="evenodd" d="M244.828 213.413C244.786 213.245 244.627 213.139 244.462 213.17C244.305 213.199 244.107 213.238 243.873 213.285C242.44 213.571 239.458 214.165 236.632 214.167H236.625C234.961 214.167 233.497 213.696 232.503 212.839C232.424 212.771 232.318 212.747 232.218 212.773C227.369 214.081 223.865 215.025 221.268 216.819C220.811 217.134 219.166 218.51 219.45 219.483C219.582 219.933 220.051 220.161 220.844 220.161C223.738 220.161 229.975 220.178 235.478 220.193C239.93 220.205 243.775 220.215 245.223 220.215C245.376 220.215 245.514 220.143 245.612 220.013C246.182 219.254 245.253 215.145 244.828 213.413Z" fill="#E4A1A1"/>
<path fill-rule="evenodd" clip-rule="evenodd" d="M245.164 221.67H220.142C219.726 221.67 219.389 221.321 219.389 220.891V220.633C219.389 220.202 219.726 219.853 220.142 219.853H245.164C245.58 219.853 245.917 220.202 245.917 220.633V220.891C245.917 221.321 245.58 221.67 245.164 221.67Z" fill="#313131"/>
<path fill-rule="evenodd" clip-rule="evenodd" d="M227.248 215.886C227.122 215.886 227 215.812 226.942 215.686C226.41 214.528 225.387 214.811 225.272 214.848C225.093 214.904 224.903 214.801 224.848 214.616C224.793 214.432 224.891 214.236 225.069 214.177C225.649 213.987 226.915 213.994 227.554 215.384C227.635 215.559 227.563 215.769 227.394 215.852C227.347 215.875 227.297 215.886 227.248 215.886Z" fill="#313131"/>
<path fill-rule="evenodd" clip-rule="evenodd" d="M230.245 215.04C230.118 215.04 229.996 214.966 229.938 214.84C229.406 213.682 228.383 213.965 228.268 214.002C228.09 214.058 227.9 213.954 227.844 213.77C227.789 213.585 227.887 213.39 228.065 213.331C228.646 213.141 229.912 213.148 230.551 214.538C230.631 214.713 230.559 214.922 230.39 215.006C230.343 215.029 230.294 215.04 230.245 215.04Z" fill="#313131"/>
<path fill-rule="evenodd" clip-rule="evenodd" d="M276.066 101.26C276.066 101.26 277.856 110.676 278.741 117.286C279.625 123.895 281.367 130.022 283.899 135.883C290.395 150.919 310.266 172.286 310.266 172.286C310.266 172.286 303.935 184.257 290.204 195.83C259.897 170.482 255.908 130.832 255.908 130.832C253.997 152.397 253.373 170.493 254.606 201.444C243.922 201.787 234.673 201.298 226.008 197.215C224.765 197.232 229.836 132.702 241.549 101.095L276.066 101.26Z" fill="#0B62AA"/>
<g style="mix-blend-mode:soft-light">
<path fill-rule="evenodd" clip-rule="evenodd" d="M261.834 106.35C261.806 106.158 261.632 106.026 261.448 106.055C261.263 106.084 261.135 106.263 261.163 106.455C261.179 106.564 261.567 109.171 262.685 111.861C264.187 115.476 266.301 117.467 268.802 117.625C268.814 117.692 268.827 117.759 268.839 117.826C268.871 118.003 268.904 118.18 268.937 118.357C269.58 121.783 270.335 125.185 271.19 128.559L271.515 129.823C271.589 130.094 271.668 130.364 271.746 130.634C271.789 130.784 271.833 130.934 271.876 131.084L272.057 131.714L272.065 131.739C272.122 131.941 272.18 132.143 272.25 132.34L272.669 133.58L272.878 134.201C272.924 134.334 272.975 134.466 273.026 134.598C273.054 134.669 273.081 134.74 273.108 134.812L273.575 136.033C273.701 136.377 273.844 136.713 273.987 137.05C274.014 137.113 274.041 137.177 274.068 137.241L274.577 138.442C275.972 141.627 277.584 144.701 279.318 147.693C282.786 153.679 286.717 159.359 290.897 164.822C292.988 167.554 295.145 170.231 297.362 172.853C298.467 174.168 299.583 175.472 300.719 176.759C301.854 178.047 303 179.32 304.181 180.572C304.304 180.703 304.506 180.705 304.632 180.578C304.758 180.45 304.76 180.241 304.637 180.111L304.637 180.11L304.633 180.106C299.94 175.151 295.516 169.898 291.344 164.455C289.259 161.732 287.238 158.955 285.306 156.115C283.376 153.273 281.523 150.374 279.816 147.386C278.109 144.398 276.526 141.334 275.164 138.168L274.667 136.975C274.641 136.912 274.614 136.849 274.588 136.786C274.448 136.452 274.308 136.118 274.186 135.776L273.732 134.567C273.706 134.495 273.679 134.424 273.652 134.353C273.602 134.223 273.553 134.093 273.508 133.961L273.305 133.347L272.899 132.121C272.832 131.928 272.777 131.732 272.723 131.537L272.713 131.502L272.538 130.88C272.497 130.734 272.456 130.588 272.415 130.442C272.338 130.174 272.262 129.906 272.19 129.636L271.874 128.375C270.725 123.726 269.763 119.022 269.055 114.283C269.027 114.121 269.025 114.094 269.022 114.059C269.019 114.016 269.015 113.96 268.96 113.627C268.686 111.726 268.451 109.821 268.264 107.91L268.264 107.908C268.239 107.653 268.018 107.466 267.771 107.492C267.525 107.518 267.345 107.747 267.37 108.002C267.37 108.003 267.37 108.007 267.37 108.007C267.695 110.994 268.14 113.961 268.671 116.909C263.359 116.365 261.849 106.451 261.834 106.35ZM253.182 122.626C253.09 122.804 250.897 127.127 248.783 138.956C246.839 149.841 244.615 169.409 245.067 200.821C245.069 201.001 245.212 201.146 245.386 201.146H245.39C245.567 201.143 245.708 200.993 245.705 200.811C245.255 169.506 247.464 150.002 249.397 139.151C251.492 127.392 253.723 122.982 253.745 122.938C253.828 122.778 253.77 122.577 253.614 122.491C253.459 122.405 253.266 122.466 253.182 122.626Z" fill="white" fill-opacity="0.5"/>
</g>
<path fill-rule="evenodd" clip-rule="evenodd" d="M212.646 32.3106C211.096 29.7256 212.293 29.1069 213.155 29.6519C213.155 29.6519 211.662 27.7508 212.398 26.9274C212.857 26.4131 213.34 26.485 214.567 27.6486C214.567 27.6486 213.169 25.5171 213.967 24.6973C214.708 23.9365 215.727 25.3515 216.623 26.4354C216.623 26.4354 215.798 23.7791 217.202 23.6618C218.592 23.5456 220.586 27.774 221.423 29.5181C221.139 27.393 222.347 25.4009 223.019 26.3229C223.848 27.4627 227.196 38.5125 232.262 47.9966C238.701 58.8378 246.678 57.9681 246.678 57.9681L242.394 72.6581C242.394 72.6581 241.138 73.3687 236.232 70.5309C227.34 65.388 222.166 54.7575 219.871 48.8765C219.657 48.7455 219.528 48.6161 219.499 48.4947C219.303 47.6587 219.082 46.8383 218.844 46.0349C218.606 45.3126 218.475 44.8613 218.447 44.7613C216.632 39.2098 214.052 34.6542 212.646 32.3106Z" fill="white"/>
<path fill-rule="evenodd" clip-rule="evenodd" d="M212.395 28.637C211.981 27.9195 211.555 26.8579 212.149 26.1932C212.588 25.7019 213.05 25.6697 213.59 25.9514C212.756 23.7073 214.642 22.7896 216.052 24.7141C215.972 23.8668 216.241 22.877 217.175 22.8161C218.396 22.7136 219.765 24.9198 221.1 27.5818C221.327 26.1336 222.213 24.5066 223.29 25.6158C225.344 30.4639 228.18 39.0129 231.969 46.2398C231.999 46.2958 232.135 46.59 232.175 46.6604C235.22 52.0501 238.627 54.6107 241.108 55.8228C242.569 56.5362 243.864 56.8674 244.834 57.0179L244.642 57.7022C243.64 57.5388 242.338 57.1943 240.863 56.48C235.557 53.9095 232.167 48.5393 230.22 44.3417C230.161 44.2148 229.906 43.5698 229.851 43.4527C226.83 37.0292 224.432 30.2007 222.748 26.0388C222.254 25.653 221.541 27.5451 221.76 28.9743C221.791 29.3616 221.781 29.7305 221.68 30.1093C221.619 30.4682 221.288 30.7209 221.031 30.9654C220.065 31.8845 220.41 33.5529 220.432 33.6507C220.454 33.7533 220.457 33.8204 220.493 33.8962C220.594 34.1011 220.319 34.2574 220.207 34.0647C219.5 32.8052 220.077 31.1653 220.921 30.1363C221.069 29.8422 221.114 29.3834 221.059 29.0525C220.391 27.66 218.358 23.4222 217.23 23.5162C216.389 23.6746 216.778 25.1015 216.935 25.7939L218.611 28.579C218.687 28.7047 218.65 28.8703 218.528 28.9487C218.411 29.0246 218.257 28.9904 218.178 28.8741C218.178 28.8741 216.354 26.1547 216.354 26.1546C215.74 25.5063 214.841 23.9758 214.206 24.4513C213.479 25.6552 216.098 28.6857 216.637 29.8158C216.824 30.1049 216.391 30.4107 216.199 30.1244L214.313 27.388C213.061 26.2078 212.851 26.4427 212.647 26.6705C212.243 27.122 212.993 28.391 213.419 28.9349C213.42 28.9373 214.886 30.849 214.887 30.8514C215.079 31.0945 214.724 31.4118 214.519 31.18L212.946 29.4376C211.955 28.9887 212.014 30.0576 212.935 31.6299C213.859 32.6509 218.014 41.4386 219.096 45.2383C219.172 45.5036 219.559 46.568 219.647 46.8119C220.32 48.6739 221.389 51.3379 222.892 54.239C227.587 63.3003 232.828 67.6637 236.398 69.7285C238.43 70.9038 239.811 71.4518 240.72 71.6986L240.53 72.3761C239.34 72.0507 237.843 71.369 236.067 70.3418C229.451 66.5155 224.922 59.6462 222.287 54.5571C220.853 51.7876 219.809 49.23 219.124 47.366C219.078 47.2401 218.158 44.4905 218.125 44.3749C216.811 40.3514 214.878 36.2007 212.358 32.0003C211.127 29.8247 211.407 28.943 212.395 28.637Z" fill="#313131"/>
<path fill-rule="evenodd" clip-rule="evenodd" d="M273.81 58.6399C280.312 57.3969 286.125 53.3255 289.892 44.0713L289.929 44.0637C293.378 34.8023 295.292 25.2158 295.943 24.0977C296.518 23.1084 297.919 24.9601 297.85 27.1041C298.508 25.2794 300.067 20.8598 301.461 20.8261C302.87 20.792 302.315 23.5226 302.315 23.5226C303.098 22.3483 303.97 20.8313 304.783 21.5085C305.659 22.2383 304.481 24.5084 304.481 24.5084C305.586 23.2194 306.058 23.096 306.567 23.5581C307.381 24.2981 306.086 26.3491 306.086 26.3491C306.889 25.7146 308.142 26.2013 306.859 28.9389C305.443 31.9583 302.626 38.4192 301.664 45.7718C301.644 45.922 301.479 46.0996 301.195 46.2902C296.536 62.9008 286.331 69.8686 278.006 73.3551L273.81 58.6399Z" fill="white"/>
<path fill-rule="evenodd" clip-rule="evenodd" d="M277.908 72.5141C287.401 68.5192 298.277 60.4939 301.956 41.3495C301.973 41.2638 302.087 40.8708 302.13 40.6791C303.292 36.2382 305.855 29.2438 306.554 28.29C307.312 26.6275 307.264 25.558 306.324 26.1109L304.933 28.0128C304.752 28.2656 304.368 27.9878 304.534 27.7257C304.535 27.723 305.801 25.6644 305.802 25.6615C306.172 25.0749 306.79 23.7324 306.343 23.3267C306.118 23.1218 305.885 22.9108 304.758 24.2193L303.156 27.1433C302.994 27.4488 302.533 27.191 302.69 26.8834C303.113 25.7015 305.414 22.406 304.571 21.2867C303.891 20.8821 303.151 22.5008 302.604 23.2117C302.605 23.2117 301.062 26.1124 301.062 26.1124C300.996 26.2365 300.846 26.287 300.722 26.2242C300.593 26.1593 300.54 25.9986 300.602 25.8654L301.991 22.9151C302.077 22.2097 302.322 20.7488 301.469 20.6817C300.337 20.7091 298.74 25.1425 298.215 26.5993C298.193 26.9341 298.284 27.3857 298.462 27.6622C299.404 28.5951 300.141 30.1643 299.565 31.4929C299.473 31.6964 299.156 31.5624 299.236 31.3477C299.264 31.2684 299.315 31.1873 299.3 31.1053C299.282 31.0067 299.487 29.3092 298.435 28.4987C298.155 28.2831 297.8 28.0675 297.704 27.7169C297.565 27.3511 297.518 26.9854 297.511 26.5966C297.585 25.1517 296.686 23.3465 296.233 23.7831C294.766 28.8235 292.862 37.088 289.843 44.6902C289.803 44.7991 289.58 45.2389 289.485 45.4284C287.192 50.3453 284.098 53.9073 280.284 56.1291C278.345 57.2583 276.231 58.0399 273.908 58.4869L273.714 57.8066C281.008 56.4352 286.237 51.7238 289.59 43.4862C289.611 43.4361 289.634 43.3912 289.668 43.3137C292.368 36.1068 294.203 28.1122 295.652 23.4208C296.613 22.2016 297.656 23.7248 298.027 25.1408C299.088 22.3499 300.229 20.0085 301.453 19.9792C302.388 19.9397 302.755 20.8951 302.761 21.7464C303.97 19.681 305.938 20.3911 305.333 22.7126C305.842 22.3744 306.305 22.3569 306.791 22.7983C307.448 23.3957 307.131 24.4972 306.791 25.2555C307.804 25.4535 308.171 26.3006 307.164 28.5966C304.83 33.5767 303.509 37.6472 302.385 42.6127C302.3 42.9906 302.075 43.7363 301.939 44.3116C299.725 53.7319 295.588 60.5882 289.761 65.9018C285.908 69.4154 281.739 71.672 278.102 73.1957L277.908 72.5141Z" fill="#313131"/>
<path fill-rule="evenodd" clip-rule="evenodd" d="M243.424 70.3851C243.466 70.1961 243.353 70.0074 243.17 69.9638C242.987 69.92 242.805 70.0383 242.763 70.2273L241.768 74.7005C235.888 73.212 234.838 70.6666 234.838 70.6666C234.838 70.6666 235.806 62.6016 239.794 54.8369C250.324 55.8281 253.196 54.3412 254.791 54.3412C257.982 53.1848 264.205 53.5438 267.714 54.6716C272.341 56.1585 272.979 56.4889 278.331 55.821C278.967 58.5555 282.374 65.6225 285.524 71.2267C283.35 72.6793 281.372 73.3782 277.399 74.4857L277.177 71.0211C277.165 70.8277 277.002 70.6833 276.816 70.6939C276.629 70.7067 276.488 70.8741 276.5 71.0677L276.787 75.5454C276.787 75.552 276.789 75.5579 276.79 75.5644C277.098 88.3168 277.501 103.118 277.501 103.118L236.653 102.458C236.653 102.458 240.977 83.777 242.329 75.3078C242.329 75.3056 242.33 75.3038 242.33 75.3017L243.424 70.3851Z" fill="#E4A1A1"/>
<path fill-rule="evenodd" clip-rule="evenodd" d="M263.959 49.6564L264.56 55.4657C264.56 55.4657 263.375 58.125 259.74 58.3072C254.836 58.5529 255.862 55.4065 255.862 55.4065L255.998 50.1599" fill="white"/>
<path fill-rule="evenodd" clip-rule="evenodd" d="M259.755 58.6371C263.54 58.4474 264.798 55.72 264.849 55.604C264.874 55.5499 264.883 55.4897 264.877 55.4304L264.276 49.6211C264.257 49.4397 264.099 49.3084 263.925 49.3277C263.75 49.3472 263.623 49.5101 263.642 49.6915L264.232 55.4033C264.011 55.8287 262.811 57.8223 259.724 57.9769C258.089 58.0584 256.674 57.7562 256.237 57.1017C255.789 56.4303 256.15 55.5477 256.154 55.539C256.17 55.5001 256.18 55.4573 256.181 55.4152L256.317 50.1689C256.322 49.9865 256.183 49.8346 256.007 49.8298C255.832 49.8228 255.684 49.9687 255.679 50.1511L255.544 55.3382C255.447 55.6047 255.14 56.6125 255.709 57.4716C256.228 58.2551 257.618 58.651 259.217 58.651C259.39 58.651 259.57 58.6464 259.755 58.6371Z" fill="#313131"/>
<path fill-rule="evenodd" clip-rule="evenodd" d="M251.46 39.1578C252.417 30.9403 257.639 30.4668 261.407 31.176C264.41 31.7415 268.251 34.3123 267.911 39.4847C269.415 38.9792 270.513 39.9257 270.708 41.156C270.929 42.5521 270.222 44.9138 267.996 44.507C267.508 48.5094 264.835 53.12 257.571 52.3486C252.071 51.7645 250.589 46.6374 251.46 39.1578Z" fill="white"/>
<path fill-rule="evenodd" clip-rule="evenodd" d="M267.679 44.4657C267.395 46.7174 266.412 48.9492 264.641 50.3709C262.572 52.3784 255.716 53.1859 253.321 49.7909C251.282 47.6394 250.977 40.1746 252.539 35.8636C253.62 35.9869 255.28 36.1296 256.792 36.0685C257.139 35.5614 257.513 34.5886 257.783 33.8887C257.912 33.5514 258.018 33.2775 258.084 33.1496C258.278 33.4241 258.015 34.8726 257.857 35.7443C257.826 35.9144 257.799 36.0625 257.78 36.1757C259.885 37.2413 264.383 37.7761 266.914 37.2935C266.941 37.7968 266.854 38.3424 266.779 38.8199C266.608 39.8933 266.492 40.6223 267.85 39.7519C269.994 38.3779 271.096 42.112 269.617 43.5924C268.803 44.4079 268.197 44.4648 267.679 44.4657ZM264.519 25.6083C265.293 25.9508 267.337 26.8915 267.366 27.7836C264.035 24.8917 253.002 23.548 249.636 33.9646C248.56 37.5745 247.899 50.4112 248.111 51.5634C249.854 51.9394 252.467 52.3528 254.799 52.2979C254.84 52.1785 254.865 52.0511 254.886 51.9206C257.742 53.3001 261.897 53.083 264.364 51.3676C264.299 51.9472 264.307 52.3434 264.313 52.635C264.317 52.8651 264.32 53.03 264.286 53.1684C266.717 53.5745 270.331 52.5591 270.331 52.5591C270.331 52.5591 276.534 39.4206 270.652 31.7394C272.03 31.4103 274.916 29.3412 272.956 25.0617C271.439 21.7507 265.995 21.6914 264.519 25.6083ZM268.379 41.9397C268.413 42.11 268.445 42.2663 268.611 42.2313C269.12 42.1242 269.185 41.3721 268.721 41.1285C268.34 40.9288 268.223 41.3744 268.345 41.7892C268.359 41.8374 268.369 41.8892 268.379 41.9397Z" fill="#313131"/>
<path fill-rule="evenodd" clip-rule="evenodd" d="M261.296 39.6567C261.344 39.6527 261.428 39.6464 261.5 39.6453C261.556 39.6427 261.614 39.6443 261.671 39.6458C261.689 39.6462 261.707 39.6467 261.725 39.6471C261.877 39.6548 262.03 39.6659 262.181 39.6905C262.483 39.7419 262.786 39.8105 263.072 39.934C263.356 40.056 263.643 40.1916 263.899 40.3831C264.149 40.5444 264.371 40.7485 264.598 40.957L264.651 41.0054L264.666 41.0191C264.75 41.0958 264.878 41.0877 264.952 41.0011C265.015 40.9269 265.018 40.8191 264.965 40.7414C264.945 40.7119 264.925 40.6821 264.905 40.6522C264.823 40.5312 264.741 40.4089 264.647 40.2955C264.618 40.2628 264.589 40.2296 264.56 40.1964L264.56 40.1963C264.468 40.0912 264.375 39.9855 264.27 39.8934C264.001 39.6393 263.692 39.4265 263.363 39.256C263.032 39.0869 262.679 38.9582 262.315 38.8886C262.132 38.8526 261.948 38.8273 261.761 38.8161C261.747 38.8157 261.733 38.8153 261.719 38.8148C261.639 38.8124 261.56 38.81 261.478 38.8131C261.38 38.8146 261.295 38.8209 261.175 38.8379C260.957 38.8689 260.804 39.0776 260.834 39.3036C260.863 39.5215 261.051 39.6763 261.26 39.6596L261.296 39.6567ZM253.81 42.1543L253.81 42.1543C253.785 42.1741 253.761 42.1928 253.739 42.2079L253.689 42.2443C253.62 42.2935 253.528 42.3046 253.446 42.2651C253.324 42.2056 253.271 42.0548 253.328 41.9281C253.388 41.7971 253.449 41.707 253.524 41.6074C253.6 41.5121 253.687 41.4264 253.783 41.3484C253.977 41.1941 254.209 41.0849 254.461 41.0355C254.712 40.9859 254.985 41.0031 255.228 41.0933C255.474 41.179 255.681 41.3335 255.845 41.5083C255.945 41.6145 255.967 41.7817 255.888 41.9134C255.795 42.0683 255.598 42.1156 255.448 42.0191L255.431 42.0079C255.288 41.916 255.149 41.843 255.009 41.8062C254.87 41.7655 254.73 41.7609 254.585 41.7801C254.442 41.8058 254.293 41.8541 254.152 41.9301C254.081 41.9669 254.01 42.0109 253.94 42.0593C253.897 42.0868 253.851 42.122 253.81 42.1543ZM263.35 41.9752C263.442 42.0941 263.519 42.2057 263.591 42.3555C263.636 42.4483 263.616 42.5643 263.535 42.6335C263.442 42.7143 263.303 42.7013 263.225 42.6043L263.208 42.5836C263.148 42.5085 263.063 42.4137 262.98 42.3415C262.895 42.2664 262.807 42.1979 262.714 42.1442C262.528 42.0358 262.333 41.9732 262.137 41.9707C262.088 41.9707 262.041 41.9727 261.989 41.979C261.97 41.9819 261.95 41.9838 261.93 41.9858C261.897 41.989 261.864 41.9923 261.832 42.0005C261.729 42.0165 261.635 42.0507 261.547 42.088C261.459 42.124 261.382 42.1744 261.315 42.2311L261.304 42.2414C261.276 42.2672 261.248 42.2928 261.225 42.321C261.212 42.3352 261.202 42.3499 261.192 42.364L261.189 42.3674L261.175 42.388C261.174 42.3892 261.172 42.392 261.171 42.3943C261.169 42.3983 261.167 42.4006 261.171 42.3902C261.09 42.5794 260.876 42.6643 260.693 42.5798C260.51 42.4954 260.428 42.2737 260.51 42.0846C260.528 42.0446 260.536 42.0293 260.547 42.0098L260.552 42.0001C260.563 41.9814 260.572 41.966 260.583 41.95V41.9499L260.586 41.9445L260.59 41.9377C260.616 41.8992 260.643 41.8622 260.672 41.8283C260.728 41.7593 260.79 41.6981 260.856 41.6433C260.988 41.5359 261.134 41.4513 261.284 41.3942C261.435 41.3405 261.588 41.3021 261.738 41.2886C261.789 41.2805 261.84 41.279 261.89 41.2774C261.914 41.2767 261.938 41.276 261.962 41.2745C262.037 41.2734 262.118 41.2802 262.195 41.2899C262.508 41.3334 262.804 41.466 263.036 41.6591C263.154 41.754 263.258 41.8602 263.35 41.9752ZM255.854 38.9309C255.947 38.9524 256.027 38.9757 256.136 39.0145C256.323 39.0823 256.431 39.2908 256.377 39.4915C256.32 39.7002 256.111 39.8221 255.909 39.7634L255.88 39.755C255.833 39.7411 255.753 39.7203 255.685 39.7054C255.615 39.6888 255.542 39.6765 255.469 39.665L255.249 39.6362L255.028 39.6215C254.732 39.6126 254.436 39.6372 254.149 39.7064C253.862 39.7758 253.582 39.8804 253.32 40.0294C253.071 40.1532 252.848 40.3272 252.619 40.506L252.618 40.5062C252.597 40.5227 252.576 40.5392 252.555 40.5558L252.538 40.5687C252.462 40.6285 252.353 40.6301 252.273 40.5662C252.178 40.4895 252.161 40.3474 252.235 40.2488C252.288 40.1776 252.345 40.1079 252.401 40.0382C252.417 40.0194 252.432 40.0001 252.448 39.9808L252.448 39.9807C252.489 39.9293 252.53 39.8777 252.58 39.8355C252.607 39.8103 252.634 39.7848 252.66 39.7592C252.765 39.6596 252.87 39.5592 252.991 39.4796C253.281 39.2572 253.619 39.1005 253.967 38.9936C254.315 38.8849 254.68 38.8272 255.042 38.834C255.224 38.8379 255.405 38.8465 255.585 38.8776C255.674 38.8928 255.764 38.909 255.854 38.9309ZM257.847 42.0441C257.825 42.4039 257.786 42.7629 257.696 43.0719C257.672 43.1469 257.645 43.2202 257.615 43.2789C257.586 43.3377 257.549 43.3836 257.529 43.3947C257.49 43.4244 257.412 43.4776 257.339 43.5249C257.263 43.5744 257.183 43.6278 257.101 43.6888C256.941 43.8133 256.762 43.9701 256.646 44.2254C256.594 44.3552 256.558 44.4913 256.571 44.6603C256.583 44.8264 256.659 44.9847 256.748 45.0894C256.928 45.3032 257.124 45.3922 257.305 45.4742C257.489 45.5495 257.668 45.604 257.846 45.6458C257.981 45.6775 258.115 45.5901 258.145 45.4507C258.171 45.3318 258.114 45.2136 258.013 45.1618L258.011 45.1611C257.96 45.1345 257.908 45.1089 257.857 45.0836H257.857C257.751 45.0311 257.649 44.9802 257.554 44.925C257.415 44.848 257.288 44.7532 257.238 44.6797C257.213 44.6421 257.211 44.6239 257.209 44.6048L257.209 44.6047C257.207 44.5883 257.218 44.5396 257.236 44.4999C257.27 44.4152 257.363 44.3119 257.485 44.2131C257.546 44.1622 257.613 44.1117 257.686 44.0577C257.705 44.0433 257.723 44.0295 257.742 44.0155C257.799 43.974 257.858 43.9305 257.929 43.8616C258.043 43.7477 258.098 43.6303 258.142 43.5209C258.186 43.4105 258.208 43.3045 258.226 43.1999C258.293 42.7842 258.254 42.3929 258.176 42.0157C258.157 41.9224 258.069 41.8629 257.979 41.8827C257.904 41.8992 257.851 41.9653 257.847 42.0406L257.847 42.0441ZM260.317 47.7951C259.494 48.2792 256.104 48.1882 255.029 47.4836C254.934 47.1477 255.054 46.9931 255.054 46.9931C255.054 46.9931 258.232 47.4738 260.315 47.2194C260.315 47.2194 260.384 47.6565 260.317 47.7951ZM254.947 46.4604C254.72 46.4137 254.512 46.4963 254.391 46.6805C253.9 47.8467 255.457 49.7466 257.693 49.7358C259.179 49.8163 260.981 48.8809 261.058 47.8199C261.128 47.3616 260.731 46.5771 260.118 46.6922C259.681 46.7742 258.637 46.8044 257.617 46.7667C256.283 46.7181 255.011 46.4728 254.949 46.4609C254.948 46.4606 254.947 46.4605 254.947 46.4604Z" fill="#313131"/>
<path fill-rule="evenodd" clip-rule="evenodd" d="M56.4316 168.804L45.4197 209.674H50.1341L66.2422 168.804H56.4316Z" fill="#D45F4F"/>
<path fill-rule="evenodd" clip-rule="evenodd" d="M101.655 168.804L119.494 209.747H122.509L111.705 168.804H101.655Z" fill="#D45F4F"/>
<path fill-rule="evenodd" clip-rule="evenodd" d="M112.025 169.326H55.3432C55.2002 169.326 55.0724 169.233 55.0238 169.094C54.8757 168.668 40.1168 126.228 32.8849 105.26C32.1167 103.032 32.7497 101.127 34.4974 100.405C37.6689 99.0967 44.7903 101.923 50.398 115.08L64.4341 152.588H112.025C112.212 152.588 112.365 152.745 112.365 152.939V168.975C112.365 169.169 112.212 169.326 112.025 169.326Z" fill="#313131"/>
<path fill-rule="evenodd" clip-rule="evenodd" d="M55.582 168.623H111.686V153.29H64.2019C64.0617 153.29 63.9361 153.201 63.8854 153.066L49.7712 115.349C44.6504 103.334 37.9034 99.7557 34.749 101.058C33.3495 101.636 32.8803 103.155 33.5245 105.023C40.4775 125.183 54.389 165.192 55.582 168.623Z" fill="white"/>
<path fill-rule="evenodd" clip-rule="evenodd" d="M129.493 192.276L135.4 202.944L146.663 201.664L141.581 188.436" fill="white"/>
<path fill-rule="evenodd" clip-rule="evenodd" d="M135.399 203.274C135.286 203.274 135.18 203.211 135.123 203.108L129.216 192.441C129.129 192.282 129.181 192.08 129.334 191.989C129.487 191.899 129.682 191.954 129.77 192.112L135.572 202.592L146.211 201.383L141.284 188.558C141.219 188.388 141.299 188.196 141.463 188.129C141.626 188.061 141.812 188.144 141.877 188.314L146.959 201.542C146.996 201.637 146.988 201.745 146.936 201.834C146.885 201.922 146.797 201.981 146.697 201.992L135.434 203.272C135.423 203.273 135.411 203.274 135.399 203.274Z" fill="#313131"/>
<path fill-rule="evenodd" clip-rule="evenodd" d="M133.605 201.729C133.631 201.557 133.78 201.436 133.947 201.451C134.106 201.465 134.307 201.485 134.544 201.509C135.997 201.656 139.019 201.963 141.832 201.695C141.835 201.695 141.837 201.694 141.84 201.694C143.497 201.535 144.913 200.925 145.826 199.977C145.898 199.902 146.001 199.867 146.103 199.884C151.049 200.722 154.622 201.327 157.368 202.864C157.85 203.135 159.612 204.347 159.415 205.343C159.325 205.804 158.878 206.076 158.089 206.152C155.206 206.429 148.998 207.042 143.52 207.584C139.088 208.022 135.26 208.4 133.819 208.539C133.667 208.554 133.522 208.495 133.413 208.375C132.778 207.673 133.336 203.493 133.605 201.729Z" fill="#DB5757"/>
<path fill-rule="evenodd" clip-rule="evenodd" d="M134.007 209.982L158.922 207.587C159.336 207.548 159.64 207.168 159.602 206.739L159.579 206.482C159.541 206.054 159.174 205.738 158.76 205.778L133.844 208.173C133.431 208.213 133.126 208.593 133.164 209.021L133.187 209.278C133.226 209.707 133.593 210.022 134.007 209.982Z" fill="#313131"/>
<path fill-rule="evenodd" clip-rule="evenodd" d="M151.33 202.508C151.456 202.496 151.57 202.411 151.617 202.28C152.044 201.076 153.088 201.26 153.205 201.285C153.388 201.324 153.568 201.203 153.606 201.014C153.645 200.825 153.53 200.639 153.348 200.598C152.753 200.464 151.493 200.592 150.98 202.037C150.915 202.22 151.006 202.422 151.181 202.488C151.23 202.507 151.281 202.513 151.33 202.508Z" fill="#313131"/>
<path fill-rule="evenodd" clip-rule="evenodd" d="M148.271 201.953C148.397 201.94 148.511 201.855 148.558 201.724C148.985 200.52 150.029 200.704 150.146 200.73C150.329 200.768 150.508 200.647 150.547 200.458C150.586 200.269 150.471 200.084 150.288 200.042C149.693 199.908 148.433 200.036 147.921 201.482C147.856 201.664 147.947 201.866 148.123 201.932C148.171 201.951 148.222 201.957 148.271 201.953Z" fill="#313131"/>
<path fill-rule="evenodd" clip-rule="evenodd" d="M97.9586 133.623C97.9586 133.623 122.422 130.57 129.534 142.606C135.241 152.264 149.91 187.101 149.448 188.159C147.882 191.75 133.183 195.187 123.545 194.15C123.545 194.15 112.905 142.135 97.9586 133.623Z" fill="#313131"/>
<g style="mix-blend-mode:overlay">
<path fill-rule="evenodd" clip-rule="evenodd" d="M123.161 163.828C123.327 163.765 123.51 163.854 123.57 164.025C123.719 164.451 123.873 164.89 124.031 165.342L124.116 165.583C124.176 165.755 124.09 165.944 123.925 166.006C123.888 166.02 123.852 166.026 123.816 166.026C123.685 166.026 123.563 165.943 123.516 165.808C123.328 165.272 123.146 164.752 122.97 164.251C122.91 164.08 122.995 163.89 123.161 163.828ZM127.136 174.313C127.314 174.834 127.492 175.357 127.669 175.878C127.727 176.05 127.64 176.239 127.473 176.299C127.438 176.312 127.403 176.318 127.367 176.318C127.236 176.318 127.113 176.233 127.067 176.097C126.889 175.576 126.712 175.055 126.534 174.533C126.475 174.361 126.562 174.173 126.728 174.112C126.894 174.051 127.077 174.141 127.136 174.313ZM128.303 177.754C128.48 178.28 128.655 178.802 128.828 179.319C128.886 179.492 128.798 179.68 128.631 179.739C128.596 179.752 128.561 179.758 128.527 179.758C128.394 179.758 128.271 179.672 128.225 179.535C128.052 179.019 127.877 178.497 127.701 177.972C127.643 177.8 127.73 177.611 127.897 177.551C128.063 177.491 128.245 177.582 128.303 177.754ZM129.968 182.769C129.8 182.255 129.628 181.731 129.453 181.2C129.396 181.027 129.214 180.935 129.047 180.994C128.881 181.053 128.792 181.241 128.849 181.414C129.024 181.945 129.196 182.468 129.363 182.98C129.408 183.118 129.532 183.205 129.666 183.205C129.699 183.205 129.734 183.199 129.768 183.187C129.935 183.129 130.024 182.942 129.968 182.769ZM131.078 186.232C130.919 185.725 130.752 185.198 130.578 184.656C130.523 184.482 130.342 184.388 130.175 184.446C130.007 184.503 129.917 184.69 129.972 184.863C130.146 185.405 130.312 185.93 130.471 186.436C130.514 186.575 130.64 186.664 130.774 186.664C130.807 186.664 130.84 186.659 130.873 186.648C131.04 186.592 131.132 186.405 131.078 186.232ZM132.729 192.086C132.703 191.955 132.672 191.812 132.636 191.658C132.595 191.481 132.423 191.372 132.252 191.413C132.081 191.456 131.975 191.634 132.016 191.812C132.05 191.959 132.079 192.095 132.104 192.22C132.136 192.376 132.268 192.483 132.417 192.483C132.438 192.483 132.46 192.481 132.482 192.476C132.654 192.439 132.765 192.264 132.729 192.086ZM132.128 189.722C131.993 189.244 131.836 188.709 131.661 188.13C131.609 187.956 131.43 187.859 131.262 187.913C131.094 187.967 131 188.153 131.052 188.327C131.225 188.902 131.381 189.434 131.516 189.908C131.557 190.052 131.684 190.146 131.822 190.146C131.852 190.146 131.882 190.141 131.912 190.132C132.081 190.081 132.178 189.897 132.128 189.722ZM125.958 170.883C125.898 170.711 125.715 170.621 125.55 170.683C125.384 170.744 125.297 170.933 125.357 171.105C125.535 171.621 125.714 172.141 125.894 172.664C125.94 172.8 126.063 172.884 126.194 172.884C126.23 172.884 126.266 172.878 126.301 172.865C126.467 172.804 126.554 172.615 126.495 172.443C126.315 171.919 126.136 171.398 125.958 170.883ZM124.36 167.254C124.526 167.193 124.709 167.281 124.768 167.453C124.946 167.963 125.127 168.483 125.31 169.012C125.37 169.184 125.284 169.373 125.118 169.434C125.082 169.448 125.046 169.454 125.01 169.454C124.879 169.454 124.757 169.37 124.71 169.235C124.526 168.707 124.346 168.187 124.168 167.677C124.108 167.506 124.194 167.316 124.36 167.254Z" fill="white"/>
</g>
<path fill-rule="evenodd" clip-rule="evenodd" d="M99.0281 194.703L98.0006 203.07L109.249 204.04L111.819 195.924" fill="white"/>
<path fill-rule="evenodd" clip-rule="evenodd" d="M109.249 204.371C109.241 204.371 109.232 204.371 109.223 204.37L97.9739 203.4C97.8871 203.392 97.8072 203.348 97.7523 203.278C97.6977 203.208 97.6728 203.118 97.6838 203.029L98.7113 194.661C98.7336 194.48 98.8964 194.352 99.0682 194.375C99.2429 194.398 99.3667 194.564 99.3445 194.745L98.3589 202.77L109.025 203.69L111.516 195.821C111.571 195.648 111.751 195.553 111.919 195.61C112.086 195.667 112.177 195.853 112.123 196.027L109.552 204.143C109.509 204.28 109.386 204.371 109.249 204.371Z" fill="#313131"/>
<path fill-rule="evenodd" clip-rule="evenodd" d="M97.5405 202.618C97.5817 202.45 97.7412 202.344 97.9061 202.374C98.0629 202.403 98.2615 202.443 98.4953 202.49C99.9283 202.775 102.91 203.369 105.736 203.372H105.743C107.408 203.372 108.872 202.9 109.865 202.044C109.944 201.976 110.05 201.951 110.15 201.978C114.999 203.285 118.503 204.23 121.1 206.023C121.557 206.339 123.203 207.715 122.918 208.688C122.786 209.138 122.317 209.366 121.524 209.366C118.63 209.366 112.393 209.383 106.89 209.397C102.438 209.409 98.5931 209.42 97.1454 209.42C96.9924 209.42 96.8543 209.348 96.7565 209.218C96.1865 208.458 97.1149 204.349 97.5405 202.618Z" fill="#DB5757"/>
<path fill-rule="evenodd" clip-rule="evenodd" d="M97.2035 210.875H122.226C122.641 210.875 122.979 210.526 122.979 210.095V209.838C122.979 209.407 122.641 209.058 122.226 209.058H97.2035C96.7877 209.058 96.4504 209.407 96.4504 209.838V210.095C96.4504 210.526 96.7877 210.875 97.2035 210.875Z" fill="#313131"/>
<path fill-rule="evenodd" clip-rule="evenodd" d="M115.119 205.091C115.246 205.091 115.368 205.017 115.426 204.89C115.958 203.733 116.981 204.016 117.096 204.053C117.275 204.109 117.464 204.005 117.52 203.821C117.575 203.636 117.477 203.44 117.299 203.382C116.719 203.191 115.453 203.198 114.813 204.588C114.733 204.764 114.805 204.973 114.974 205.057C115.021 205.08 115.071 205.091 115.119 205.091Z" fill="#313131"/>
<path fill-rule="evenodd" clip-rule="evenodd" d="M112.123 204.245C112.25 204.245 112.372 204.171 112.43 204.044C112.962 202.886 113.985 203.17 114.1 203.206C114.278 203.263 114.468 203.159 114.523 202.975C114.579 202.79 114.481 202.594 114.303 202.536C113.722 202.345 112.456 202.352 111.817 203.742C111.737 203.918 111.808 204.127 111.978 204.21C112.025 204.234 112.074 204.245 112.123 204.245Z" fill="#313131"/>
<path fill-rule="evenodd" clip-rule="evenodd" d="M61.5927 132.65C61.5927 132.65 57.9465 145.038 64.2866 153.506C68.9741 159.767 87.1738 161.448 99.2623 157.535C99.4703 156.894 100.149 154.75 100.761 152.262C100.805 152.085 100.978 151.978 101.149 152.023C101.32 152.068 101.423 152.248 101.38 152.425C100.801 154.779 100.162 156.829 99.911 157.61L89.2246 192.323C96.9527 196.354 105.116 198.772 115.757 198.25C115.757 198.25 119.149 183.675 121.268 170.459C123.562 156.15 131.751 132.98 104.324 132.98L61.5927 132.65Z" fill="#0B62AA"/>
<g style="mix-blend-mode:overlay">
<path fill-rule="evenodd" clip-rule="evenodd" d="M76.3605 133.831C76.5282 133.776 76.7073 133.873 76.7605 134.047C76.7766 134.099 78.2426 139.083 74.4731 141.054C74.7485 141.185 75.0333 141.309 75.3278 141.423C75.4929 141.486 75.5768 141.677 75.5152 141.848C75.4675 141.981 75.3456 142.063 75.2162 142.063C75.1792 142.063 75.1416 142.056 75.1049 142.042C74.5789 141.839 74.0768 141.607 73.6128 141.352C73.5758 141.331 73.5447 141.304 73.5193 141.273C73.4801 141.238 73.4466 141.194 73.4276 141.14C73.3675 140.969 73.453 140.779 73.6186 140.717C75.2828 140.09 76.2174 138.827 76.3962 136.963C76.5339 135.528 76.1556 134.258 76.1518 134.245C76.099 134.071 76.1925 133.886 76.3605 133.831ZM69.5469 135.226C69.723 135.213 69.8755 135.348 69.8894 135.529C69.8904 135.541 69.9443 136.156 70.3128 137.003C70.3851 137.17 70.3135 137.365 70.1528 137.44C70.1102 137.46 70.0657 137.469 70.022 137.469C69.9002 137.469 69.7841 137.397 69.7308 137.275C69.3112 136.309 69.2554 135.61 69.2531 135.581C69.2397 135.399 69.3712 135.24 69.5469 135.226ZM77.1201 141.979C77.6094 142.098 78.1271 142.2 78.659 142.281C78.8334 142.308 78.9537 142.476 78.928 142.656C78.9046 142.821 78.7683 142.939 78.6126 142.939C78.5971 142.939 78.5813 142.937 78.5656 142.935C78.0161 142.851 77.4807 142.745 76.9741 142.622C76.8026 142.58 76.6962 142.402 76.7365 142.225C76.7767 142.047 76.9492 141.937 77.1201 141.979ZM72.3698 139.716C71.9651 139.374 71.5989 139 71.2821 138.603C71.1697 138.462 70.9684 138.443 70.8328 138.559C70.697 138.675 70.678 138.884 70.7903 139.024C71.1337 139.454 71.5295 139.859 71.9665 140.228C72.0257 140.278 72.097 140.303 72.168 140.303C72.2605 140.303 72.3523 140.261 72.4155 140.181C72.5268 140.04 72.5064 139.831 72.3698 139.716ZM80.5385 142.488C81.0509 142.528 81.5848 142.565 82.1253 142.597C82.3013 142.608 82.4356 142.764 82.4252 142.946C82.4153 143.122 82.2748 143.258 82.1071 143.258C82.1009 143.258 82.0945 143.258 82.0883 143.257C81.5439 143.224 81.0064 143.187 80.4903 143.147C80.3146 143.133 80.183 142.974 80.1962 142.792C80.2095 142.611 80.3611 142.473 80.5385 142.488ZM92.6281 142.76C92.1549 142.772 91.6204 142.781 91.036 142.788C90.8597 142.79 90.7183 142.94 90.7204 143.122C90.7225 143.304 90.8648 143.449 91.0395 143.449H91.043C91.6303 143.442 92.167 143.432 92.6424 143.421C92.8186 143.417 92.9582 143.266 92.9542 143.083C92.9503 142.901 92.8037 142.753 92.6281 142.76ZM87.5327 142.787C88.0825 142.794 88.6147 142.798 89.1248 142.798C89.3009 142.799 89.4436 142.947 89.4434 143.129C89.4432 143.312 89.3005 143.459 89.1243 143.459H89.124C88.6115 143.459 88.0769 143.455 87.5249 143.448C87.3486 143.446 87.2074 143.296 87.2096 143.113C87.2119 142.932 87.3542 142.787 87.5286 142.787H87.5327ZM85.6228 142.749C85.0885 142.734 84.5534 142.715 84.0323 142.694C83.8591 142.687 83.7078 142.828 83.7008 143.011C83.6938 143.193 83.8308 143.347 84.0068 143.354C84.5307 143.376 85.0687 143.394 85.6059 143.409C85.6088 143.409 85.6116 143.409 85.6145 143.409C85.7867 143.409 85.9287 143.267 85.9333 143.088C85.9381 142.905 85.799 142.753 85.6228 142.749ZM99.9602 175.591C99.7893 175.544 99.6151 175.649 99.5695 175.825C99.4312 176.359 99.2925 176.892 99.1539 177.423C99.1079 177.599 99.2084 177.78 99.3785 177.828C99.4064 177.836 99.4345 177.84 99.4621 177.84C99.6028 177.84 99.7314 177.743 99.77 177.595C99.9087 177.064 100.047 176.531 100.186 175.996C100.231 175.82 100.13 175.639 99.9602 175.591ZM101.362 168.781C101.406 168.604 101.58 168.498 101.751 168.544C101.922 168.59 102.024 168.77 101.98 168.947C101.847 169.476 101.713 170.01 101.577 170.55C101.539 170.698 101.41 170.797 101.268 170.797C101.242 170.797 101.215 170.793 101.187 170.786C101.017 170.74 100.915 170.559 100.959 170.382C101.095 169.843 101.23 169.309 101.362 168.781ZM100.862 172.069C100.693 172.022 100.518 172.128 100.473 172.304C100.338 172.835 100.201 173.368 100.065 173.902C100.019 174.078 100.121 174.259 100.291 174.306C100.319 174.314 100.346 174.317 100.373 174.317C100.514 174.317 100.644 174.22 100.681 174.071C100.819 173.537 100.955 173.004 101.09 172.472C101.135 172.296 101.033 172.115 100.862 172.069ZM102.241 165.254C102.285 165.077 102.459 164.97 102.629 165.015C102.8 165.061 102.903 165.241 102.859 165.418C102.73 165.942 102.597 166.478 102.461 167.022C102.424 167.171 102.294 167.27 102.152 167.27C102.126 167.27 102.099 167.267 102.072 167.259C101.902 167.214 101.799 167.034 101.843 166.857C101.979 166.313 102.111 165.778 102.241 165.254ZM103.498 161.483C103.326 161.438 103.154 161.545 103.111 161.722C102.984 162.238 102.853 162.774 102.717 163.328C102.673 163.504 102.776 163.684 102.947 163.729C102.974 163.736 103 163.74 103.026 163.74C103.168 163.74 103.298 163.64 103.335 163.491C103.471 162.937 103.603 162.401 103.729 161.885C103.773 161.708 103.669 161.528 103.498 161.483ZM103.972 158.186C104.015 158.009 104.189 157.902 104.359 157.946C104.53 157.99 104.634 158.17 104.591 158.347C104.471 158.842 104.341 159.38 104.2 159.956C104.164 160.105 104.034 160.205 103.891 160.205C103.865 160.205 103.839 160.202 103.813 160.195C103.642 160.151 103.538 159.971 103.582 159.794C103.722 159.219 103.852 158.681 103.972 158.186ZM105.212 154.395C105.041 154.351 104.868 154.459 104.826 154.636C104.826 154.637 104.686 155.224 104.438 156.255C104.395 156.432 104.5 156.611 104.67 156.655C104.696 156.662 104.722 156.665 104.748 156.665C104.891 156.665 105.021 156.565 105.057 156.415C105.305 155.382 105.445 154.794 105.445 154.794C105.487 154.617 105.383 154.438 105.212 154.395ZM98.6505 179.339C98.697 179.163 98.8726 179.059 99.0425 179.108C99.2124 179.156 99.3125 179.338 99.2659 179.514C99.1237 180.052 98.9817 180.585 98.8407 181.111C98.8016 181.257 98.6733 181.353 98.5336 181.353C98.5053 181.353 98.4766 181.349 98.4481 181.341C98.2783 181.292 98.1788 181.11 98.226 180.935C98.3667 180.409 98.5082 179.877 98.6505 179.339ZM94.9555 193.059C94.7934 192.987 94.6061 193.066 94.5372 193.234C94.4346 193.483 94.3406 193.691 94.258 193.852C94.1747 194.012 94.2332 194.213 94.3885 194.299C94.4365 194.325 94.488 194.338 94.5389 194.338C94.6528 194.338 94.7629 194.275 94.8204 194.163C94.9123 193.986 95.0147 193.76 95.1246 193.492C95.1934 193.324 95.1179 193.13 94.9555 193.059ZM95.7066 189.825C95.7605 189.651 95.9396 189.555 96.1079 189.611C96.2757 189.666 96.3682 189.853 96.3143 190.026C96.1355 190.604 95.9651 191.136 95.8079 191.608C95.7623 191.744 95.6387 191.83 95.5062 191.83C95.4719 191.83 95.4367 191.824 95.4022 191.812C95.2356 191.753 95.1473 191.564 95.2047 191.392C95.3603 190.925 95.5292 190.398 95.7066 189.825ZM98.1028 182.619C97.9334 182.57 97.7571 182.672 97.7091 182.847C97.5615 183.389 97.4155 183.92 97.2716 184.439C97.2228 184.614 97.3207 184.797 97.4902 184.847C97.5197 184.856 97.5492 184.86 97.5784 184.86C97.717 184.86 97.8447 184.766 97.8849 184.621C98.0291 184.101 98.1754 183.569 98.3233 183.027C98.3712 182.851 98.2724 182.669 98.1028 182.619ZM96.7358 186.345C96.7856 186.171 96.9629 186.071 97.1321 186.122C97.3013 186.174 97.3978 186.358 97.3478 186.532C97.191 187.082 97.0374 187.613 96.8879 188.122C96.8461 188.265 96.7196 188.357 96.5828 188.357C96.5519 188.357 96.5208 188.352 96.4898 188.342C96.3212 188.289 96.2261 188.105 96.2775 187.93C96.4263 187.423 96.5793 186.893 96.7358 186.345Z" fill="white" fill-opacity="0.8"/>
</g>
<path fill-rule="evenodd" clip-rule="evenodd" d="M114.55 123.007C108.991 113.554 102.885 102.103 102.885 102.103C102.885 102.103 95.8893 111.679 95.8954 116.79C95.8976 118.627 103.574 129.054 107.429 133.21C107.455 133.283 107.488 133.34 107.528 133.376C107.675 133.507 107.82 133.64 107.964 133.773C108.192 134.006 108.41 134.221 108.616 134.413L108.625 134.395C113.45 139.036 116.755 144.396 118.31 147.074C119.824 149.683 120.902 148.862 120.827 147.818C120.827 147.818 121.779 150.062 122.822 149.759C123.474 149.571 123.632 149.093 123.193 147.431C123.193 147.431 124.386 149.693 125.455 149.331C126.447 148.995 125.695 147.411 125.173 146.091C125.173 146.091 127.079 148.062 127.821 146.822C128.555 145.594 125.831 141.828 124.714 140.261C126.41 141.492 128.674 141.288 128.187 140.248C127.612 139.02 120.295 131.529 114.55 123.007Z" fill="white"/>
<path fill-rule="evenodd" clip-rule="evenodd" d="M128.493 140.095C125.287 136.02 119.276 129.509 114.804 122.773C114.772 122.724 114.537 122.379 114.483 122.291C108.803 113.024 103.224 102.061 103.168 101.949C103.085 101.787 102.893 101.725 102.737 101.81C102.581 101.895 102.521 102.095 102.603 102.256C102.659 102.368 108.174 113.204 113.827 122.454C113.915 122.598 114.115 122.956 114.172 123.041C118.7 129.793 124.606 136.376 127.882 140.402C127.988 141.032 126.037 140.826 124.908 139.973C124.59 139.767 124.268 139.608 123.896 139.529C123.56 139.421 123.192 139.611 122.865 139.736C121.634 140.207 120.373 139.102 120.284 139.063C120.209 139.032 120.171 138.944 120.122 138.876C119.992 138.689 119.711 138.891 119.825 139.082C120.585 140.307 122.258 140.524 123.527 140.216C123.848 140.214 124.263 140.381 124.521 140.583C125.413 141.834 128.128 145.64 127.532 146.637C127.013 147.34 125.964 146.33 125.44 145.87L123.812 143.055C123.738 142.928 123.579 142.886 123.456 142.962C123.337 143.036 123.297 143.193 123.361 143.319C123.361 143.319 124.865 146.24 124.866 146.24C125.142 147.102 126.047 148.629 125.349 148.997C123.983 149.118 122.573 145.322 121.848 144.309C121.685 144.005 121.225 144.265 121.383 144.572L122.874 147.559C123.318 149.25 123.02 149.337 122.731 149.421C122.159 149.587 121.41 148.317 121.137 147.677C121.136 147.674 120.161 145.452 120.16 145.449C120.039 145.162 119.604 145.344 119.71 145.638L120.489 147.884C120.423 149.001 119.531 148.459 118.6 146.893C118.169 145.647 113.077 138.594 110.175 135.503C109.682 134.977 108.862 134.199 108.833 134.171C104.998 130.486 98.6579 121.729 97.8907 119.058C97.8406 118.883 97.6635 118.784 97.4939 118.836C97.3251 118.888 97.2289 119.072 97.279 119.247C98.112 122.147 104.553 130.851 108.17 134.431C108.17 134.433 108.17 134.435 108.171 134.438C111.723 137.804 115.036 142.117 118.019 147.256C119.327 149.383 120.212 149.527 120.926 148.756C121.354 149.465 122.071 150.342 122.914 150.098C123.536 149.917 123.775 149.506 123.779 148.88C125.327 150.672 126.976 149.353 125.965 147.176C126.657 147.636 127.631 147.84 128.109 147.007C128.754 145.929 127.483 143.66 125.804 141.216C127.152 141.668 128.954 141.594 128.493 140.095Z" fill="#313131"/>
<path fill-rule="evenodd" clip-rule="evenodd" d="M55.0516 104.564C54.2248 106.882 54.2631 108.046 53.9252 109.752C58.0738 112.52 63.1979 112.601 65.5904 112.838C61.6707 126.148 61.5665 133.797 61.5665 133.797L100.043 133.971C100.043 133.971 97.6507 120.182 97.1604 113.315C97.1432 112.499 103.588 107.656 105.553 103.232C103.807 99.4433 99.7602 93.6835 99.2216 92.9227C95.4161 87.5477 87.4391 82.261 76.9092 84.0783C68.4534 85.2348 61.5928 86.226 55.0516 104.564Z" fill="#DB5757"/>
<path fill-rule="evenodd" clip-rule="evenodd" d="M87.6995 86.539C86.8938 84.6609 85.2009 84.2355 84.6083 84.1425L84.0925 79.122L76.2632 79.7116C76.2632 79.7116 75.8119 81.4344 75.6042 83.6262C74.5765 83.7232 72.0195 84.1174 71.3083 85.6672C71.1589 87.3836 73.6448 94.1796 76.4584 94.3332C77.5244 94.3915 80.398 92.3284 81.1134 90.7439C81.2988 90.8102 81.39 90.847 81.4313 90.8675C81.4573 90.8526 81.5014 90.827 81.559 90.7923C81.5677 90.8105 81.5746 90.828 81.5837 90.8463C82.4752 92.332 83.9239 94.7783 84.9759 94.5896C87.7521 94.0922 88.044 88.225 87.6995 86.539Z" fill="white"/>
<path fill-rule="evenodd" clip-rule="evenodd" d="M86.3308 93.2141C85.9386 93.8135 85.4645 94.1669 84.9215 94.264C84.146 94.404 82.771 92.1953 82.0201 90.9473C83.951 89.6213 84.9362 88.2457 85.1128 86.6367C85.1966 85.8731 85.1593 85.0283 85.1227 84.5282C85.6854 84.6817 86.7467 85.1608 87.394 86.6412C87.6488 87.9585 87.5071 91.4162 86.3308 93.2141ZM76.4753 94.0033C75.8453 93.9688 75.1761 93.534 74.4871 92.7104C72.7326 90.6144 71.5717 86.9119 71.6224 85.7547C72.2852 84.4069 74.1062 84.1191 74.8237 84.0578C74.958 84.9951 75.7901 87.5949 80.6925 90.8583C79.8346 92.3331 77.2878 94.045 76.4753 94.0033ZM88.0117 86.4707C87.2137 84.3889 85.3751 83.8763 84.9051 83.8105C84.9006 83.7172 84.8967 83.6656 84.8967 83.6656L84.5 79.5323L83.8708 79.6573L84.5043 86.2599C84.4975 86.3616 84.4895 86.4629 84.4786 86.562C84.3773 87.4849 83.9494 88.9043 81.4132 90.5672C81.4054 90.5723 81.399 90.5787 81.3918 90.5845C81.3666 90.5369 81.3304 90.495 81.2833 90.4642C77.8134 88.2024 76.4033 86.2899 75.8299 85.0879C75.8965 82.9815 76.2886 80.7421 76.4756 79.7775L75.8425 79.6783C75.6964 80.4272 75.4413 81.8627 75.2943 83.4358C75.2425 83.4006 75.182 83.3805 75.119 83.3805H75.1187C74.9915 83.3806 71.992 83.4076 71.0202 85.5253C71.0041 85.5607 70.994 85.5987 70.9907 85.6377C70.8718 87.0021 72.2032 90.9909 74.0048 93.1433C74.8119 94.1076 75.6318 94.6189 76.4416 94.6632C76.4627 94.6643 76.4842 94.665 76.5059 94.665C77.8526 94.6648 80.5504 92.4904 81.3246 91.0403L81.3548 91.0907C82.5702 93.117 83.7532 94.9306 84.8561 94.9306C84.9145 94.9306 84.9726 94.9255 85.0304 94.9153C85.7507 94.7862 86.3661 94.3385 86.8592 93.5849C88.163 91.5918 88.3044 87.8936 88.0117 86.4707Z" fill="#313131"/>
<path fill-rule="evenodd" clip-rule="evenodd" d="M85.1466 114.797H92.5911C93.3981 114.797 94.2148 101.076 94.2148 101.076H83.3C83.3 101.076 84.0748 114.797 85.1466 114.797Z" fill="#32923B"/>
<path fill-rule="evenodd" clip-rule="evenodd" d="M94.6526 98.5504L94.0023 97.8461H83.5131L82.8629 98.5504L82.4138 101.614H95.1017L94.6526 98.5504Z" fill="white"/>
<path fill-rule="evenodd" clip-rule="evenodd" d="M82.785 101.283H94.7307L94.3523 98.7033L93.866 98.1766H83.6496L83.1633 98.7033L82.785 101.283ZM95.1018 101.944H82.4138C82.3208 101.944 82.2325 101.902 82.1719 101.829C82.1113 101.756 82.0843 101.659 82.0984 101.564L82.5475 98.5009C82.5574 98.4336 82.5869 98.3712 82.6322 98.3221L83.2825 97.6178C83.3428 97.5526 83.4261 97.5157 83.5132 97.5157H94.0024C94.0895 97.5157 94.1728 97.5526 94.233 97.6178L94.8833 98.3221C94.9286 98.3712 94.9584 98.4336 94.9681 98.5009L95.4174 101.564C95.4313 101.659 95.4045 101.756 95.3439 101.829C95.2832 101.902 95.1948 101.944 95.1018 101.944Z" fill="#313131"/>
<path fill-rule="evenodd" clip-rule="evenodd" d="M90.6287 108.989C90.6639 108.348 90.0994 108.103 89.5439 108.206C91.1156 107.533 91.064 105.498 88.8317 106.082C88.832 106.082 88.8325 106.082 88.8328 106.082H88.8325C89.9817 105.631 89.856 104.164 88.5707 104.295C86.6035 104.648 85.1522 104.747 83.4428 104.573C83.5591 100.68 81.7229 104.326 79.0027 105.233L78.9727 105.314C76.6537 106.393 70.1486 109.263 61.5333 112.262C61.2128 112.218 58.752 111.804 57.8804 111.545C56.7608 111.24 55.6953 110.846 54.8669 110.338C54.6349 110.213 54.4097 110.082 54.1916 109.944C53.6757 111.474 50.52 123.712 57.9806 125.424C60.2702 126.212 64.4451 124.644 64.4451 124.644C69.7372 122.529 74.5061 116.973 78.3143 114.103C79.3915 113.369 80.5961 112.85 81.8963 112.907C87.1985 113.138 88.7323 112.512 89.6301 111.583C90.1607 111.033 89.6684 110.385 88.9839 110.407C88.9839 110.407 90.5829 109.823 90.6287 108.989Z" fill="white"/>
<path fill-rule="evenodd" clip-rule="evenodd" d="M90.9399 108.826C90.9241 108.497 90.7044 108.149 90.4056 108.007C91.2737 107.223 91.0666 105.68 89.7639 105.689C90.236 105.017 89.6945 104.048 88.9348 103.983C88.4027 103.941 87.8985 104.131 87.3752 104.175C86.1616 104.35 84.9431 104.405 83.7231 104.295C83.6953 102.298 83.1639 102.021 81.6331 103.246C81.089 103.658 80.5876 104.101 80.0057 104.429C78.4374 105.268 76.7847 105.932 75.1455 106.61C70.9127 108.324 64.8615 110.698 60.5321 112.133C60.5321 112.133 58.339 112.854 57.2808 113.19C56.973 113.286 57.0834 113.814 57.4336 113.709C64.2289 111.515 72.7653 108.373 79.2865 105.402C80.2514 104.988 81.1342 104.347 81.9528 103.697C82.2885 103.468 82.6237 103.152 83.0082 103.085C83.1379 103.555 83.1334 104.087 83.1531 104.576C83.1542 104.727 83.2658 104.857 83.4147 104.872C85.0915 105.059 86.7919 104.927 88.4483 104.631C89.3804 104.404 89.6886 105.313 88.7869 105.752C87.902 106.185 86.8991 106.39 85.9259 106.508C85.8032 106.522 85.7112 106.634 85.718 106.763C85.7656 107.182 86.4481 106.907 86.7214 106.926C87.4944 106.828 88.26 106.71 88.9826 106.373C89.371 106.317 90.1698 106.169 90.2976 106.659C90.4385 107.3 89.8156 107.727 89.3352 107.966C88.3026 108.332 87.1973 108.496 86.1164 108.645C85.8021 108.686 85.8495 109.184 86.1681 109.157C87.3789 109.033 88.59 108.924 89.7502 108.508C90.1532 108.477 90.459 108.765 90.252 109.162C90.1435 109.357 89.9134 109.548 89.6695 109.702C88.6465 110.359 87.3716 110.307 86.2147 110.531C85.8977 110.576 85.9502 111.075 86.2697 111.048C87.1946 110.963 88.0951 110.887 89.0198 110.738C89.3389 110.733 89.6853 110.985 89.4633 111.28C87.9188 113.002 84.1338 112.627 81.9889 112.621C80.2703 112.543 78.6404 113.419 77.357 114.531C72.8813 118.44 66.5683 125.22 60.091 125.276C57.9659 125.302 55.5611 124.62 54.5124 122.53C52.2971 118.513 54.242 111.204 54.5392 110.155C54.3479 110.044 54.1599 109.93 53.9792 109.809C53.9805 109.803 53.9816 109.797 53.9827 109.791C53.9773 109.804 53.9712 109.816 53.9672 109.829C53.8629 110.172 51.4415 118.293 53.9576 122.857C55.0981 125.134 57.7136 125.971 60.0503 125.931C66.9333 125.796 73.2872 118.986 77.7946 114.986C79.1292 113.943 80.7155 113.102 82.4274 113.303C82.4274 113.302 82.8925 113.317 82.8925 113.317C84.9229 113.338 87.075 113.417 88.9611 112.502C89.7109 112.105 90.7224 111.184 89.8269 110.366C90.3394 110.075 91.0154 109.557 90.9399 108.826Z" fill="#313131"/>
<path fill-rule="evenodd" clip-rule="evenodd" d="M98.055 120.224C98.3161 122.474 99.7942 131.453 100.155 133.682L100.156 133.683C100.185 133.863 100.067 134.033 99.8936 134.064C99.7198 134.094 99.5552 133.972 99.5261 133.792C99.526 133.792 99.5257 133.789 99.5255 133.789C99.1869 131.543 97.8058 122.536 97.5692 120.282C97.0961 115.774 96.6642 111.262 96.2612 106.747C96.2526 106.65 96.3214 106.564 96.4149 106.555C96.5077 106.547 96.5899 106.617 96.5996 106.713C97.0518 111.22 97.5331 115.726 98.055 120.224Z" fill="#313131"/>
<path fill-rule="evenodd" clip-rule="evenodd" d="M80.4197 60.784C74.8357 60.784 70.6875 65.0794 69.8898 69.0444C68.1348 69.0444 66.8585 70.2009 66.8585 71.8529C66.8585 72.9042 66.5394 74.8267 69.0921 75.8179C69.7303 81.1046 75.4885 85.0106 80.9376 83.6288C88.7554 81.6463 88.1204 76.4788 87.5992 70.3661C87.0779 64.2534 86.0037 60.784 80.4197 60.784Z" fill="white"/>
<path fill-rule="evenodd" clip-rule="evenodd" d="M73.2077 81.5329C75.2281 83.246 78.0382 83.8538 81.5602 83.3393C83.2175 83.0973 84.5242 82.2747 85.4439 80.8946C87.1072 78.3994 87.4427 74.1384 86.3648 69.2041C85.5226 65.348 84.5681 63.4486 83.039 62.5738C82.7547 62.9523 82.3563 63.3385 81.8038 63.7169C80.1032 64.8814 78.8078 64.8806 77.5512 64.8779H77.5393C76.4218 64.8779 75.2675 64.8779 73.7295 65.7086C71.4729 66.9273 70.7293 70.9783 70.722 71.0191C70.6972 71.1585 70.5894 71.2661 70.4538 71.2864C70.4385 71.2885 70.4232 71.2897 70.408 71.2897C70.2891 71.2897 70.1784 71.221 70.1235 71.109C70.0028 70.8621 69.7693 70.613 69.438 70.3711C69.1773 70.274 68.9313 70.2234 68.7057 70.2234C68.4137 70.2234 68.1546 70.3046 67.9378 70.4665C67.5032 70.7913 67.2522 71.4301 67.2827 72.1337C67.3313 73.2535 67.8073 74.5882 69.7979 74.5882C69.9669 74.5882 70.1066 74.7245 70.1165 74.8993C70.1722 75.8879 70.56 79.2881 73.2077 81.5329ZM83.2734 58.5069C85.2346 58.8318 87.548 60.8533 87.7443 64.8518C88.0593 71.272 89.7773 73.167 91.5199 75.0888C91.8562 75.4599 92.1934 75.8318 92.5218 76.2375C94.4315 78.5975 94.8572 85.0002 89.457 84.5876C87.5285 88.0662 82.4624 86.9678 82.0243 83.9281C81.901 83.9529 81.7764 83.9752 81.6492 83.9937C80.8102 84.1163 80.0081 84.1776 79.2448 84.1776C78.2966 84.1776 76.431 84.0786 75.6333 83.7482C75.4737 84.9047 74.7511 88.0477 70.9348 87.0915C67.549 89.0512 61.1841 87.759 61.2754 81.4303C61.3136 78.7754 61.9229 77.8209 62.7607 76.5081C63.5778 75.2279 64.6122 73.6072 65.5464 69.7372C67.4384 61.8987 72.0862 55.7619 78.6845 56C81.6915 56.1085 82.8418 57.1665 83.2734 58.5069ZM69.3101 72.1696C69.2753 72.8531 68.6957 72.8392 68.534 72.7221C68.147 72.4415 68.3554 71.4856 68.6697 71.4209C68.9506 71.3629 69.3447 71.4863 69.3101 72.1696Z" fill="#313131"/>
<path fill-rule="evenodd" clip-rule="evenodd" d="M84.5658 69.5402C84.0974 69.4039 83.6229 69.3842 83.1483 69.5093C83.0257 69.5339 82.907 69.4511 82.8833 69.3242C82.8571 68.9535 83.5569 68.79 83.837 68.7356C84.2466 68.6366 85.7238 68.8762 85.3399 69.5415C85.1858 69.703 84.9742 69.6444 84.7725 69.5885C84.7014 69.5688 84.6315 69.5494 84.5658 69.5402ZM85.8574 71.9209C86.3805 71.5867 85.5394 70.8884 85.2483 70.775C84.3188 70.3096 83.127 70.7037 82.6035 71.6098C82.5295 71.726 82.544 71.8842 82.6451 71.9835C82.7639 72.1007 82.9539 72.0866 83.0585 71.9571C83.2332 71.766 83.4189 71.6019 83.626 71.4869C84.2004 71.1654 85.0752 71.2784 85.4959 71.7868C85.5718 71.9107 85.7167 71.9837 85.8574 71.9209ZM81.7298 74.1238C83.4717 74.8788 82.8668 76.8218 81.0464 76.6737C80.633 76.6704 80.6313 76.0194 81.0436 76.0129C81.3886 76.0042 81.9056 75.9576 82.0573 75.6465C82.2409 75.167 81.7755 74.8489 81.3692 74.6815C81.1935 74.5967 81.1331 74.3613 81.1075 74.2219C80.9776 73.3865 80.9977 72.5531 81.0178 71.7157L81.0195 71.6458C81.0241 71.3577 81.455 71.3542 81.4692 71.637C81.4894 71.8628 81.5054 72.0904 81.5214 72.3185C81.564 72.926 81.6068 73.5368 81.7298 74.1238ZM78.0842 72.6739C77.9746 72.5425 77.8203 72.454 77.6375 72.4259C77.0077 72.335 76.4948 72.9138 76.2912 73.4933C76.2378 73.6501 76.0682 73.7309 75.9189 73.6684C75.557 73.4748 75.8518 72.9926 76.0476 72.6725C76.0816 72.6167 76.1127 72.5659 76.1368 72.5224C76.4896 72.0215 77.0832 71.6648 77.7101 71.7261C78.0311 71.7543 78.3591 71.9005 78.5981 72.1543C78.925 72.5037 78.4129 73.0203 78.0842 72.6739ZM77.024 70.1757C77.2132 70.1795 77.4066 70.1835 77.4875 70.004C77.6121 69.4967 76.4085 69.5403 76.1072 69.5733C75.7244 69.6343 74.8498 69.7909 74.8354 70.2988C74.8565 70.4661 75.0046 70.5841 75.166 70.5624C75.4063 70.5268 75.6427 70.4582 75.8796 70.3896C76.1627 70.3075 76.4464 70.2253 76.738 70.1988C76.8197 70.1715 76.9212 70.1736 77.024 70.1757ZM82.5567 77.4847C83.1875 77.3941 84.1074 77.2618 84.2756 77.5596C84.8065 78.7152 83.8108 80.0208 82.8103 80.4894C81.234 81.2397 78.1414 80.5216 78.4739 78.2476C78.4682 78.175 78.5661 78.0552 78.6478 78.0563C78.7829 78.0353 78.9188 78.0141 79.0553 77.9928C80.0507 77.8374 81.0812 77.6765 82.0675 77.5439C82.1755 77.5395 82.3507 77.5144 82.5567 77.4847Z" fill="#313131"/>
<path fill-rule="evenodd" clip-rule="evenodd" d="M84.5832 73.203C84.3443 73.2051 84.3477 73.5889 84.5863 73.5867C84.8252 73.5847 84.8217 73.2008 84.5832 73.203ZM78.1624 74.2507C77.8408 74.406 78.0733 74.9237 78.3955 74.7681C78.717 74.6128 78.4846 74.0952 78.1624 74.2507ZM76.9905 74.6697C76.7547 74.7835 76.9252 75.1631 77.1615 75.0491C77.3973 74.9351 77.2266 74.5557 76.9905 74.6697ZM77.6615 75.8468C77.2723 76.0349 77.5537 76.6621 77.9439 76.4736C78.3332 76.2854 78.0516 75.6584 77.6615 75.8468ZM76.4322 76.0346C76.2181 75.5044 75.5329 76.3352 76.1538 76.4441C76.4091 76.5411 76.5664 76.2444 76.4322 76.0346ZM84.4764 74.4512C84.0819 74.4547 84.0876 75.0884 84.4815 75.0851C84.8762 75.0816 84.8703 74.4477 84.4764 74.4512ZM85.5652 74.1043C85.5342 74.3326 85.7772 74.5142 85.9516 74.3295C86.4238 73.9857 85.5403 73.5781 85.5652 74.1043ZM83.4539 73.3351C83.1281 73.3381 83.1329 73.8614 83.458 73.8585C83.7838 73.8555 83.7792 73.3321 83.4539 73.3351Z" fill="#D45F4F"/>
</svg>
